<svg version="1.1" id="Layer_1" xmlns="http://www.w3.org/2000/svg" xmlns:xlink="http://www.w3.org/1999/xlink" x="0px" y="0px"
	 width="800px" height="600px" viewBox="0 0 800 600" enable-background="new 0 0 800 600" xml:space="preserve">
<path fill="#653B1E" d="M527.146,165.506c0.664,0.867,1.43,1.75,1.703,1.961c1.141,0.871,2.059-0.41,1.242-1.727
	c-2.016-3.242-8.945-9.094-12.531-10.582c-0.727-0.297-2-1.117-2.828-1.816c-0.836-0.699-2.813-1.875-4.398-2.605
	c-1.582-0.73-3.461-1.961-4.172-2.734c-1.395-1.52-3.766-2.293-15.145-4.957c-2.898-0.684-5.992-1.57-6.871-1.977
	c-2.344-1.078-3.219-1.227-4.332-0.711c-1.207,0.555-1.09,1.387,0.246,1.797c0.543,0.168,2.258,0.688,3.816,1.164
	s5.449,1.465,8.641,2.195c7.699,1.762,9.848,2.516,12.652,4.465c1.289,0.898,2.859,1.723,3.484,1.828
	c0.625,0.109,2.531,1.301,4.242,2.648c1.703,1.355,3.773,2.766,4.594,3.145c0.82,0.375,1.883,0.902,2.367,1.176
	C521.239,159.549,525.817,163.775,527.146,165.506z"/>
<path fill="#653B1E" d="M500.091,181.916c0.508,0.488,2.34-0.086,2.387-0.75c0.07-0.961-2.043-2-4.566-2.238
	c-1.434-0.137-3.184-0.359-3.887-0.496c-0.699-0.133-2.934-0.316-4.957-0.41c-2.023-0.09-4.063-0.219-4.523-0.285
	c-0.461-0.063-1.574-0.148-2.477-0.188c-0.898-0.039-2.344-0.309-3.203-0.598c-0.859-0.293-3.219-0.613-5.234-0.711
	c-6.68-0.316-12.336-0.906-12.859-1.336c-0.648-0.535-6.438-1.063-11.188-1.02c-2,0.016-4.07-0.207-4.609-0.504
	c-0.531-0.297-1.43-0.422-2-0.281c-0.566,0.137-2.07,0.25-3.348,0.242c-1.285-0.008-3.879-0.023-5.773-0.035
	c-4.668-0.023-5.398,0.145-5.285,1.223c0.063,0.617,0.43,0.945,1.297,1.148c1.602,0.379,6.242-0.059,7.832-0.738
	c1.535-0.656,3.512-0.449,5.406,0.57c1.238,0.668,3.285,0.773,5.539,0.293c1.348-0.285,5.82-0.676,7.23-0.629
	c1.23,0.039,1.574,0.23,1.762,0.973c0.137,0.566,0.652,1.078,1.313,1.309c1.145,0.406,7.035,0.441,11.984,0.078
	c2.563-0.188,3.223-0.07,4.703,0.824c0.949,0.574,2.355,1.113,3.129,1.199c0.777,0.09,1.75,0.246,2.164,0.348
	s0.984,0.129,1.273,0.055c0.754-0.188,13.707,0.805,15.742,1.203C498.88,181.35,499.845,181.689,500.091,181.916z"/>
<path fill="#653B1E" d="M514.146,185.174c-1.07,0.66-1.461,2.113-1.297,4.801c0.125,2.086,0.227,2.375,0.941,2.668
	c1.473,0.602,1.949,0.18,1.363-1.199c-0.398-0.93-0.398-1.895,0-3.746C515.716,185.111,515.431,184.389,514.146,185.174z"/>
<path fill="#653B1E" d="M522.524,177.236c-1.191,0.293-2.016,2.5-1.922,5.117c0.066,1.711,0.211,2.254,0.73,2.637
	c0.738,0.543,2.344,0.273,2.566-0.43c0.082-0.254-0.207-0.707-0.641-1c-0.941-0.633-0.895-1.914,0.145-4.328
	C524.134,177.549,523.849,176.904,522.524,177.236z"/>
<path fill="#653B1E" d="M494.692,197.26c-0.609,0.32-0.984,1.32-1.445,3.871c-0.348,1.887-0.547,3.762-0.445,4.164
	c0.25,1.004,1.246,0.668,1.535-0.52c0.133-0.531,0.363-1.102,0.512-1.262c0.434-0.473,1.852-5.34,1.711-5.891
	C496.384,196.9,495.634,196.752,494.692,197.26z"/>
<path fill="#653B1E" d="M523.013,279.529c-1.043,0.262-1.32,1.121-1.406,4.402c-0.059,2.184,0.063,3.043,0.469,3.344
	c0.758,0.563,1.445-0.035,1.57-1.348C524.169,280.291,524.067,279.271,523.013,279.529z"/>
<path fill="#653B1E" d="M428.513,325.572c-0.719-0.328-1.195-0.844-1.258-1.367c-0.227-1.961-1.832-2.086-2.117-0.164
	c-0.234,1.57,0.336,2.484,2.082,3.34c0.762,0.379,1.723,0.605,2.125,0.5C430.423,327.615,429.919,326.205,428.513,325.572z"/>
<path fill="#653B1E" d="M371.665,146.615c0.984-0.121,0.273-0.809-0.799-0.773c-0.605,0.023-2.133-0.07-3.393-0.207
	c-3.529-0.391-4.082-0.328-4.184,0.477c-0.164,1.336,1.27,1.676,4.678,1.102C369.731,146.916,371.396,146.646,371.665,146.615z"/>
<path fill="#653B1E" d="M377.421,183.408c-0.117,0.191-0.568,0.438-1.008,0.547c-0.828,0.207-7.676,3.703-9.189,4.691
	c-0.479,0.313-2.514,1.293-4.52,2.18c-2.01,0.883-4.854,2.258-6.322,3.059c-4.461,2.422-6.852,3.633-9.711,4.918
	c-1.504,0.68-3.926,1.93-5.383,2.777c-2.09,1.219-3.215,1.637-5.289,1.957c-1.799,0.277-2.988,0.668-3.744,1.223
	c-0.609,0.449-2.17,1.313-3.467,1.914s-3.584,1.672-5.078,2.375c-1.496,0.703-3.629,2.02-4.738,2.922
	c-1.113,0.906-3.258,2.172-4.768,2.809c-1.51,0.645-3.055,1.492-3.43,1.879c-0.375,0.391-2.146,1.207-3.943,1.809
	c-2.84,0.953-3.373,1.27-4.15,2.434c-0.488,0.734-0.758,1.469-0.592,1.633c0.445,0.434,4.672-1.227,7.227-2.844
	c1.234-0.777,3.154-1.645,4.264-1.918c2.004-0.496,4.049-1.742,7.342-4.473c2.691-2.23,4.6-3.352,6.523-3.828
	c0.986-0.246,3.01-1.098,4.488-1.895c1.48-0.797,3.371-1.555,4.199-1.684c2.049-0.32,6.813-2.234,7.873-3.164
	c0.473-0.418,2.414-1.332,4.316-2.039c1.9-0.699,3.762-1.602,4.135-2.004c0.375-0.406,1.084-0.938,1.58-1.188
	c0.496-0.254,1.535-0.828,2.313-1.273c2.373-1.355,19.016-9.535,23.34-11.473c0.938-0.418,2.021-1.047,2.406-1.395
	c0.381-0.344,3.746-1.535,7.471-2.645c6.975-2.082,7.846-2.543,7.492-3.969c-0.24-0.969-1.145-1.031-2.555-0.172
	c-0.639,0.387-3.516,1.488-6.395,2.441C382.563,180.854,377.772,182.826,377.421,183.408z"/>
<path fill="#653B1E" d="M373.464,159.971c0.254,1.023,1.393,1.246,3.652,0.723c1.035-0.238,3.91-0.699,6.395-1.012
	c2.482-0.316,4.639-0.578,4.791-0.59c0.15-0.008,0.336-0.207,0.414-0.441c0.154-0.492-0.291-0.5-5.676-0.055
	c-3.809,0.316-5.648,0.199-7.27-0.461C374.737,157.717,373.204,158.932,373.464,159.971z"/>
<path fill="#653B1E" d="M362.386,157.541c-3.305,0.219-4.814,0.141-5.596-0.297c-0.623-0.348-1.779-0.5-2.773-0.367
	c-1.645,0.223-1.67,0.242-0.715,0.621c0.545,0.219,0.959,0.641,0.922,0.941c-0.098,0.785,1.107,1.254,3.316,1.297
	c2.227,0.047,10.504-1.848,9.822-2.242C367.116,157.35,364.874,157.369,362.386,157.541z"/>
<path fill="#653B1E" d="M270.187,362.506c-0.553,0.918,0.543,1.105,3.527,0.594c1.584-0.266,2.977-0.43,3.092-0.359
	c0.355,0.211,0.674,0.035,1.307-0.719c0.332-0.398,0.455-0.82,0.266-0.93C277.222,360.396,270.79,361.502,270.187,362.506z"/>
<path fill="#653B1E" d="M353.532,370.311c-4.035,1.5-5.352,2.695-4.438,4.012c0.455,0.648,1.598,0.379,3.094-0.734
	c0.637-0.473,1.279-0.785,1.432-0.695c0.15,0.09,1.127-0.25,2.174-0.762c1.041-0.512,2.75-1.344,3.789-1.855
	c1.043-0.512,1.85-1.105,1.799-1.324c-0.127-0.504,2.953-0.785,4.156-0.375c1.365,0.461,2.828,0.363,3.262-0.219
	c0.313-0.426,0.127-0.727-0.902-1.473c-1.475-1.07-2.672-1.219-8.299-1.023c-3.996,0.137-9.184-0.133-10.879-0.563
	c-0.49-0.121-0.938-0.52-0.99-0.887c-0.221-1.527-0.578-1.996-1.617-2.121c-1.566-0.188-2.365,0.453-2.33,1.871l0.035,1.234
	l-2.6,0.355c-1.432,0.195-3.732,0.219-5.107,0.055c-4.801-0.578-8.291-0.82-10.918-0.758c-3.311,0.078-6.055-0.07-8.617-0.461
	c-5.16-0.793-6.938-1.023-9.742-1.273c-1.545-0.137-4.891-0.766-7.432-1.402c-8.959-2.234-15.408-3.613-16.115-3.438
	c-0.734,0.184-9.428-1.523-10.15-1.988c-1.063-0.695-2.869-0.168-2.814,0.82c0.021,0.363,0.525,0.934,1.121,1.266
	c1.344,0.75,9.459,2.492,13.443,2.883c3.551,0.352,7.34,1.309,7.494,1.895c0.135,0.512-2.402,1.563-5.854,2.418
	c-2.766,0.688-3.969,1.625-3.301,2.582c0.496,0.711,4.93-0.309,10.285-2.363c2.801-1.074,3.93-1.352,5.246-1.289
	c1.811,0.086,2.385,0.676,1.002,1.031c-1.279,0.328-9.592,3.5-12.223,4.66c-2.734,1.211-3.227,1.645-2.701,2.395
	c0.666,0.953,1.881,0.727,4.494-0.852c1.658-1.004,3.674-1.836,5.955-2.461c1.898-0.52,5.398-1.574,7.779-2.34
	c3.768-1.211,4.547-1.352,5.926-1.066c1.998,0.402,1.967,1.027-0.096,1.941c-0.891,0.395-2.988,1.422-4.664,2.281
	c-1.68,0.863-4.693,2.242-6.701,3.066c-3.949,1.625-4.67,2.219-3.525,2.906c0.631,0.383,1.098,0.266,3.994-0.969
	c1.803-0.77,4.52-1.91,6.033-2.539c1.514-0.625,4.135-1.82,5.818-2.652c4.939-2.445,5.953-2.762,8.436-2.621
	c1.254,0.07,2.313,0.254,2.352,0.414c0.068,0.27-0.383,0.496-3.783,1.879c-1.963,0.797-7.748,3.73-8.721,4.422
	c-0.879,0.629-0.727,2.078,0.238,2.195c0.338,0.043,1.697-0.566,3.012-1.352s4.707-2.371,7.531-3.52
	c2.826-1.152,6.232-2.547,7.57-3.102c2.262-0.934,2.627-0.977,5.02-0.582c1.42,0.234,2.613,0.543,2.65,0.688
	c0.084,0.355-2.443,1.816-3.676,2.121c-1.18,0.297-5.576,2.723-6.592,3.637c-1.344,1.219-0.117,2.484,1.92,1.977
	c0.682-0.168,1.297-0.488,1.367-0.719c0.352-1.094,9.518-5.426,13.602-6.426c3.561-0.875,5.77-0.715,4.873,0.352
	c-0.479,0.566-3.963,2.359-8.551,4.402c-2.84,1.258-4.102,2.227-3.914,2.996c0.117,0.461,0.662,0.41,2.971-0.273
	c3.119-0.926,10.279-4.215,12.717-5.84c2.945-1.965,7.197-2.969,6.756-1.594C355.55,369.389,354.61,369.908,353.532,370.311z"/>
<path fill="#653B1E" d="M373.46,366.92c0.527,0.582,2.398,0.766,5.512,0.531c1.764-0.133,3.988-1.258,3.822-1.934
	c-0.1-0.395-5.152-0.664-8.154-0.445C373.124,365.189,372.612,365.986,373.46,366.92z"/>
<path fill="#653B1E" d="M366.782,223.303c0.412,0.004,0.84,0.008,0.957,0.004c0.113-0.004,1.063-1.32,2.107-2.926
	c1.045-1.609,2.674-3.668,3.623-4.578c0.951-0.914,2.102-2.16,2.553-2.77c0.455-0.609,1.859-2.066,3.115-3.234
	c1.262-1.172,2.951-3.176,3.752-4.457c1.295-2.07,5.74-7.418,6.275-7.547c0.258-0.066,2.176-2.375,3.5-4.211
	c0.549-0.766,1.771-2.113,2.711-3.004c0.945-0.891,2.379-2.656,3.193-3.918c0.813-1.266,2.41-3.387,3.549-4.719
	c2.422-2.836,3.16-4.5,2.332-5.293c-0.305-0.293-1.043-0.406-1.654-0.258c-0.963,0.242-1.066,0.418-0.836,1.426
	c0.236,1.012,0.139,1.176-0.863,1.406c-0.623,0.145-1.514,0.23-1.98,0.188c-0.514-0.047-1.09,0.211-1.459,0.652
	c-0.523,0.629-0.51,0.867,0.111,1.766c0.859,1.246,0.734,1.484-3.088,5.723c-1.393,1.551-3.471,3.965-4.615,5.359
	c-1.141,1.398-3.199,3.73-4.572,5.184s-3.293,3.867-4.264,5.355c-0.973,1.492-2.4,3.258-3.182,3.934
	c-0.775,0.672-2.664,2.598-4.197,4.273c-1.533,1.68-3.365,3.664-4.072,4.414C366.509,219.545,364.96,223.287,366.782,223.303z"/>
<path fill="#653B1E" d="M387.106,212.896c3.455,0.055,5.26,0.598,6.203,1.871l0.896,1.203l4.654-1.305
	c3.076-0.867,5.59-1.348,7.41-1.422c1.516-0.063,2.824-0.219,2.906-0.355c0.188-0.313,2.625,0.406,2.719,0.801
	c0.047,0.168,0.418,0.215,0.84,0.113c0.871-0.219,0.816-0.938-0.137-1.73c-1.008-0.844-9.861-0.609-13.871,0.363
	c-2.721,0.66-2.824,0.648-4.889-0.48c-2.482-1.363-6.633-1.715-7.943-0.68C384.718,212.205,385.208,212.865,387.106,212.896z"/>
<path fill="#653B1E" d="M435.731,161.311c0.75-0.117,2.742-0.172,4.422-0.121c2.43,0.078,3.367,0.313,4.535,1.141
	c1.531,1.086,4.973,1.578,10.492,1.492c4.879-0.074,8.887,0.059,10.055,0.336c0.652,0.156,1.703,0.16,2.336,0
	c0.875-0.215,1.52,0,2.738,0.93c1.836,1.395,3.824,1.633,13.18,1.563c4.859-0.039,11.613,1.02,13.727,2.148
	c2.043,1.094,3.078,0.879,2.891-0.605c-0.109-0.855-0.516-1.133-2.672-1.813c-3.094-0.98-7.539-1.754-11.133-1.945
	c-4.379-0.238-8.859-0.297-9.613-0.129c-0.387,0.086-1.496-0.086-2.457-0.383c-2.844-0.875-5.047-1.227-9.555-1.504
	c-2.332-0.145-5.645-0.41-7.359-0.59c-1.711-0.18-4.145-0.367-5.406-0.41c-1.25-0.043-2.805-0.313-3.441-0.602
	c-2.102-0.949-8.504-1.547-10.699-1c-0.395,0.094-1.34,0.074-2.102-0.047c-0.762-0.125-2.922-0.18-4.805-0.125
	c-2.688,0.078-3.773-0.09-5.117-0.801c-1.914-1.02-3.551-1.102-11.004-0.555c-7.93,0.586-12.914,0.711-13.969,0.352
	c-1.275-0.43-2.428-0.129-2.523,0.664c-0.262,2.117,2.25,2.344,11.949,1.074c6.914-0.902,11.75-1.074,12.164-0.422
	c0.703,1.117,2.402,1.883,4.316,1.953C428.841,161.99,433.231,161.697,435.731,161.311z"/>
<path fill="#653B1E" d="M425.759,173.314c-0.043-0.164-1.027-0.281-2.191-0.266s-3.078-0.16-4.254-0.391
	c-2.363-0.457-3.832,0.023-3.551,1.156c0.18,0.723,1.254,1.145,3.117,1.234C420.239,175.111,425.853,173.693,425.759,173.314z"/>
<path fill="#653B1E" d="M402.015,188.221c0.037,0.793,0.998,0.914,4.092,0.504c4.246-0.563,5.531-0.906,5.219-1.395
	c-0.152-0.238-0.617-0.406-1.039-0.371c-0.414,0.039-1.141,0.004-1.602-0.074c-0.465-0.082-1.297-0.117-1.844-0.09
	c-0.551,0.031-1.617-0.031-2.375-0.141C402.972,186.439,401.956,187.088,402.015,188.221z"/>
<path fill="#653B1E" d="M386.552,336.412c1.82-0.641,1.602-1.953-0.393-2.359c-0.891-0.18-1.828-0.746-2.355-1.422
	c-0.48-0.613-1.594-2.027-2.48-3.137c-1.605-2.02-1.607-2.027-2.793-8.016c-0.652-3.289-1.658-8.145-2.234-10.785
	c-0.578-2.641-1.15-5.277-1.277-5.855c-0.125-0.586-0.668-2.816-1.207-4.965c-0.959-3.805-1.467-7.156-1.768-11.605
	c-0.08-1.203-0.668-5.156-1.303-8.785c-1.834-10.449-2.305-13.805-2.367-16.816c-0.031-1.555-0.418-4.645-0.857-6.875
	c-0.445-2.227-1.023-5.18-1.295-6.559c-0.648-3.293-1.359-9.324-1.381-11.715c-0.018-2.172,0.811-8.258,1.451-10.652
	c0.357-1.316,0.322-1.691-0.195-2.066c-0.611-0.453-0.9-0.313-2.104,1.02c-0.225,0.246-0.541,1.73-0.705,3.301
	c-0.168,1.566-0.5,3.223-0.746,3.68c-0.322,0.602-0.279,1.18,0.152,2.129c0.449,0.977,0.482,1.66,0.146,2.715
	c-0.568,1.781,0.848,12.254,1.83,13.523c0.441,0.566,0.557,1.156,0.412,2.121c-0.109,0.734,0.023,2.832,0.295,4.656
	c0.271,1.82,0.594,4.844,0.707,6.703c0.117,1.863,0.539,5.098,0.939,7.184s0.791,4.359,0.867,5.051
	c0.076,0.688,0.443,2.91,0.811,4.93c0.367,2.023,0.719,4.578,0.775,5.676c0.061,1.098,0.445,3.645,0.854,5.66
	c0.658,3.242,0.666,3.684,0.045,3.852c-1.369,0.371-1.59,0.973-0.912,2.527c0.57,1.309,0.547,1.598-0.189,2.637
	c-0.459,0.645-1.207,1.262-1.668,1.375c-0.461,0.117-1.494,0.797-2.295,1.516c-0.799,0.719-1.881,1.531-2.396,1.805
	c-0.518,0.277-1.359,1.145-1.869,1.93c-0.947,1.457-2.137,2.426-2.617,2.137c-0.281-0.168,0.844-3.168,1.533-4.098
	c0.217-0.293,1.125-2.523,2.014-4.953c0.891-2.434,1.746-4.516,1.908-4.629c0.158-0.113,0.234-0.43,0.168-0.703
	c-0.066-0.27,0.064-0.746,0.293-1.059c0.23-0.313,0.402-1.059,0.381-1.664c-0.018-0.602,0.211-1.777,0.514-2.613
	c0.885-2.449,1.277-4.148,1.115-4.867c-0.078-0.371,0.059-1.668,0.314-2.887c0.596-2.828,0.391-3.762-0.721-3.313
	c-0.932,0.379-1.006,0.637-2.635,9.488c-1.098,5.918-2.037,9.516-3.01,11.477c-0.252,0.504-0.705,1.855-1.008,3.004
	c-0.602,2.281-1.367,4.395-2.141,5.934c-0.275,0.547-0.352,1.352-0.17,1.789c0.275,0.664,0.039,0.992-1.408,1.945
	c-0.959,0.633-2.215,1.57-2.803,2.082c-1.723,1.516-1.809,1.438-2.521-2.242c-0.674-3.508-0.793-4.789-1.02-11.184
	c-0.172-4.746-1.117-7.367-1.979-5.477c-0.445,0.965-0.529,7.797-0.131,10.43c0.084,0.551,0.451,3.148,0.816,5.773l0.664,4.773
	l-1.564,1.008c-0.857,0.555-2.318,1.832-3.25,2.848c-0.93,1.02-1.793,1.875-1.918,1.902c-0.129,0.035-1.254,0.891-2.5,1.898
	c-4.008,3.254-5.34,4.027-7.506,4.355c-2.871,0.434-3.801,1.012-3.514,2.184c0.525,2.109,5.094,0.969,9.723-2.438
	c1.502-1.105,3.152-2.219,3.658-2.469c0.508-0.258,1.406-1.039,1.998-1.738c2.404-2.848,4.244-4.211,5.869-4.348
	c1.203-0.105,1.922-0.453,3.25-1.598c0.939-0.805,1.838-1.738,1.994-2.078c0.35-0.766,2.846-2.328,3.289-2.059
	c0.18,0.109,0.434,0.633,0.566,1.172c0.236,0.949,0.391,0.969,5.662,0.699c3.092-0.152,6.063-0.07,6.926,0.195
	c0.834,0.258,2.012,0.461,2.623,0.453c0.83-0.008,1.168,0.215,1.338,0.898c0.26,1.055-0.303,1.574-1.414,1.313
	c-0.832-0.195-4.672-0.305-9.867-0.277c-1.799,0.012-5.021,0.406-7.268,0.891l-4.033,0.875l0.133,1.023
	c0.117,0.93,0.291,1.016,1.84,0.898c0.943-0.07,3.293-0.363,5.225-0.656c1.932-0.285,4.234-0.535,5.125-0.551
	c4.523-0.074,8.146,0.191,9.736,0.719c1.537,0.508,1.779,0.734,1.803,1.672c0.033,1.121,1.508,5.043,2.295,6.086
	c0.414,0.555,0.338,0.582-1.172,0.379c-0.885-0.117-1.904-0.293-2.258-0.383c-0.359-0.094-1.648-0.156-2.871-0.137
	c-1.219,0.02-3.387,0-4.818-0.047c-2.828-0.094-3.645,0.211-3.381,1.254c0.268,1.082,1.115,1.258,5.35,1.109
	c2.199-0.082,4.662-0.023,5.48,0.121c4.684,0.84,6.375,1.355,8.16,2.488C385.003,336.666,385.487,336.787,386.552,336.412z
	 M370.782,299.33c0.166-0.172,0.447-0.176,0.619-0.008c0.17,0.172,0.174,0.449,0.006,0.621c-0.166,0.172-0.449,0.172-0.619,0.004
	S370.612,299.502,370.782,299.33z M370.976,306.51c1.316,0.078,1.486,0.223,1.961,1.676c0.484,1.484,0.199,2.211-0.572,1.461
	c-0.387-0.379-4.635-1.281-5.277-1.121c-0.242,0.063-0.498-0.133-0.572-0.422C366.337,307.385,369.108,306.396,370.976,306.51z
	 M372.944,314.928c-1.393-0.363-5.604-0.477-10.379-0.285c-1.822,0.074-3.217-0.031-3.094-0.23c0.693-1.145,3.473-3.207,4.129-3.066
	c0.398,0.09,1.416,0.027,2.262-0.137c0.844-0.16,2.598-0.02,3.893,0.316c1.299,0.336,2.748,0.516,3.221,0.395
	c1.141-0.281,1.496,0.129,1.596,1.824C374.661,315.33,374.62,315.357,372.944,314.928z"/>
<path fill="#653B1E" d="M422.376,331.838c1.672,0.285,1.645,0.293,2.285-0.473c0.688-0.824,0.07-1.781-1.156-1.781
	c-0.5-0.004-1.242-0.379-1.656-0.836c-1.5-1.66-3.313-0.965-2.391,0.922C420.165,331.119,420.763,331.561,422.376,331.838z"/>
<path fill="#653B1E" d="M450.821,221.975c-0.699-0.227-1.965,1.066-2.531,2.582c-0.598,1.598-0.387,3.16,0.496,3.691
	c0.316,0.191,0.797,0.293,1.078,0.223c0.523-0.133,0.586-0.387,0.535-2.273c-0.016-0.617,0.238-1.492,0.559-1.949
	C451.587,223.373,451.513,222.193,450.821,221.975z"/>
<path fill="#653B1E" d="M401.194,232.455c-1.623,0.402-3.035,6.84-1.877,8.539c0.793,1.168,1.359,0.465,1.641-2.039
	c0.143-1.238,0.494-2.949,0.781-3.805C402.392,233.225,402.187,232.209,401.194,232.455z"/>
<path fill="#653B1E" d="M488.532,192.311c1.012-0.707,0.316-1.352-1.957-1.809c-2.25-0.457-4.594-0.652-16.164-1.355
	c-3.367-0.207-7.469-0.582-9.109-0.836c-3.891-0.605-6.141-0.746-8.855-0.559c-1.973,0.141-6.699,0.113-13.402-0.082
	c-1.227-0.035-3.063-0.387-4.082-0.781c-1.867-0.727-5.242-0.957-11.082-0.75c-1.766,0.063-3.867,0.004-4.664-0.125
	c-1.336-0.223-1.488-0.176-1.785,0.555c-0.941,2.309,0.23,2.574,7.16,1.613c4.68-0.641,6.609-0.57,7.07,0.273
	c0.441,0.816,3.586,1.371,7.57,1.332c7.277-0.066,12.313-0.191,12.832-0.32c0.301-0.07,2.082,0.188,3.957,0.578
	c1.879,0.387,4.43,0.766,5.676,0.84s2.918,0.211,3.723,0.309c1.484,0.176,4.016,0.293,8.391,0.395
	c4.281,0.098,8.961,0.477,11.156,0.902C487.231,192.932,487.673,192.912,488.532,192.311z"/>
<path fill="#653B1E" d="M425.56,335.057c0.531,0.172,2.578,0.137,4.563-0.074c3.617-0.391,7.477-1.645,11.039-3.578
	c1.313-0.715,1.625-0.75,8.625-0.957c1.883-0.055,3.664-0.211,3.965-0.348c0.301-0.141,1.629-0.648,2.957-1.129
	c3.781-1.371,7.008-4.371,5.297-4.918c-0.227-0.07-1.117,0.406-1.98,1.063c-1.082,0.82-2.766,1.551-5.375,2.336
	c-3.582,1.082-3.965,1.117-6.742,0.672c-3.469-0.555-3.676-0.52-5.934,1.023c-2.5,1.711-6.797,3.051-10.645,3.316
	c-1.777,0.125-3.605,0.125-4.074,0.012c-1.383-0.352-2.219,0.063-2.438,1.207C424.638,334.615,424.731,334.791,425.56,335.057z"/>
<path fill="#653B1E" d="M434.923,219.193c8.742-1.75,13.242-3.043,14.531-4.176c1.348-1.188,0.684-1.77-1.395-1.219
	c-9.781,2.598-18.813,4.727-21.508,5.074c-1.84,0.234-7.477,1.391-12.531,2.563c-8.992,2.09-9.238,2.129-11.885,1.703
	c-2.408-0.387-2.869-0.344-4.234,0.387c-0.842,0.449-1.977,0.926-2.521,1.063c-0.545,0.133-1.578,0.754-2.297,1.379
	c-1.639,1.426-4.295,2.125-5.74,1.508c-2.619-1.105-5.875-0.781-7.463,0.746c-0.451,0.43-1.145,1.047-1.545,1.363
	c-0.887,0.707-1.141,1.398-0.68,1.852c0.232,0.223,0.465,0.172,0.707-0.152c0.197-0.27,1.646-0.93,3.221-1.477
	c2.795-0.973,2.91-0.977,5.137-0.223l2.277,0.773l2.512-1.531c6.592-4.02,7.951-4.586,9.35-3.867c1.92,0.992,3.553,1.031,7.283,0.18
	c2.066-0.469,4.645-1.195,5.73-1.613c1.082-0.418,4.961-1.301,8.617-1.965S431.739,219.83,434.923,219.193z"/>
<path fill="#653B1E" d="M474.614,210.318c-0.227-0.918-1.008-0.727-2,0.488c-0.555,0.684-1.344,1.438-1.75,1.68
	c-1.328,0.793-1.352,4.246-0.031,5.039c0.977,0.59,1.703-0.066,1.516-1.359c-0.125-0.813,0.234-1.879,1.102-3.289
	C474.161,211.729,474.685,210.58,474.614,210.318z"/>
<path fill="#653B1E" d="M438.677,226.037c-0.758,0.969-0.789,1.277-0.266,2.594c0.32,0.82,0.945,1.641,1.383,1.816
	c0.43,0.18,1.203,0.219,1.711,0.098c0.738-0.184,0.828-0.348,0.445-0.82c-0.484-0.605-1.047-2.641-1.121-4.059
	C440.771,224.541,439.692,224.725,438.677,226.037z"/>
<path fill="#653B1E" d="M429.427,226.256c-1.313,0.324-2.008,2.145-1.75,4.559c0.18,1.699,0.348,2.094,1.016,2.359
	c0.992,0.41,1.406,0.012,1.133-1.09c-0.117-0.473,0.102-1.816,0.492-2.984C431.106,226.74,430.841,225.904,429.427,226.256z"/>
<path fill="#653B1E" d="M419.149,229.846c-0.152-0.598-1.191-0.809-1.813-0.363c-0.492,0.352-1.648,4.379-1.465,5.109
	c0.066,0.266-0.148,0.867-0.48,1.328c-0.605,0.848-0.613,1.703-0.027,2.059c0.172,0.105,0.43,0.16,0.563,0.129
	C416.622,237.936,419.392,230.834,419.149,229.846z"/>
<path fill="#653B1E" d="M408.552,238.291c-0.039-0.754,0.184-1.984,0.492-2.727c0.566-1.348,1.242-3.914,1.141-4.313
	c-0.031-0.113-0.313-0.141-0.633-0.063c-1.992,0.496-4.285,9.141-2.676,10.109C407.747,241.826,408.649,240.209,408.552,238.291z"/>
<path fill="#653B1E" d="M375.54,202.064c0.51-0.949,0.889-4.066,0.619-5.141c-0.348-1.402-1.705-0.129-2.227,2.086
	c-0.242,1.035,0,3.637,0.359,3.855C374.761,203.146,375.067,202.947,375.54,202.064z"/>
<path fill="#653B1E" d="M195.204,433.947c1.789-1.039,2.525-2.082,1.789-2.527c-0.164-0.098-1.205-0.016-2.305,0.191
	c-2.387,0.438-5.627,2.797-8.748,6.375c-4.568,5.227-5.406,8.398-3.277,12.375c1.633,3.051,5.936,9.574,6.668,10.113
	c0.375,0.277,1.008,0.422,1.404,0.32c0.803-0.199,3.328-2.676,3.209-3.152c-0.164-0.656-1.281-0.969-2.438-0.684
	c-1.156,0.289-1.271,0.207-2.189-1.582c-0.531-1.035-1.59-2.609-2.348-3.496c-0.758-0.883-1.678-2.402-2.045-3.367
	c-0.553-1.465-0.564-2.059-0.084-3.508C186.065,441.299,190.276,436.807,195.204,433.947z"/>
<path fill="#653B1E" d="M428.997,360.314c-2,0.758-4.691,1.895-5.977,2.527c-3.352,1.645-7.25,3.137-15.25,5.836
	c-3.844,1.301-8.352,2.965-10.01,3.703c-3.385,1.508-10.309,3.785-20.123,6.617c-3.633,1.051-6.783,2.141-6.992,2.418
	c-0.215,0.281-0.873,0.926-1.465,1.434c-0.861,0.734-1.025,1.156-0.801,2.07c0.238,0.961,0.557,1.191,1.986,1.473
	c1.045,0.207,2.219,0.836,3.035,1.637c1.391,1.355,7.736,5.398,11.799,7.512c1.289,0.668,2.785,1.563,3.328,1.984
	c1.459,1.137,6.229,3.41,8.553,4.074c1.117,0.316,2.961,0.551,4.104,0.512c1.135-0.035,2.227,0.164,2.43,0.445
	c0.234,0.34,0.602,0.363,1.094,0.066c2.32-1.395,3.844-1.965,9.68-3.625c3.531-1.004,7.578-2.309,8.992-2.898
	c6.047-2.512,10.746-4.086,11.871-3.992c2.066,0.176,4.277-2.172,3.113-3.309c-0.305-0.301-0.23-0.906,0.219-1.824
	c0.52-1.063,0.563-1.637,0.164-2.496c-1.43-3.105-3.523-9.938-4.656-15.164c-1.102-5.094-1.207-6.109-0.828-7.797
	C433.88,358.736,433.474,358.623,428.997,360.314z M435.462,383.01c0.922,2.219,0.941,2.402,0.285,3.117
	c-0.383,0.422-0.594,1.152-0.469,1.652c0.242,0.969-0.07,1.203-3.07,2.313c-6.816,2.523-8.313,3.121-9.48,3.801
	c-1.582,0.926-19.41,5.73-21.152,5.703c-3.387-0.051-8.777-2.152-14.586-5.691c-1.717-1.043-3.951-2.332-4.965-2.859
	c-1.967-1.027-5.969-3.828-6.758-4.738c-0.264-0.301-1.229-0.938-2.139-1.41l-1.666-0.863l1.973-0.898
	c2.385-1.082,10.898-4.004,13.705-4.699c1.701-0.418,2.043-0.391,2.123,0.184c0.303,2.121,1.547,1.98,2.525-0.281
	c0.592-1.375,0.916-1.637,2.994-2.395c1.283-0.469,2.887-1.156,3.568-1.527c1.764-0.957,2.256-0.395,0.881,1.016
	c-2.26,2.309-0.02,2.695,2.596,0.445c0.887-0.762,2.354-1.699,3.264-2.078c1.059-0.445,1.844-1.082,2.188-1.781
	c0.488-0.988,0.945-1.219,4.859-2.441c5.035-1.57,5.086-1.449,0.906,2.176c-2.063,1.789-2.777,2.652-2.715,3.289
	c0.145,1.453,1.109,1.109,4.418-1.57c1.75-1.418,3.582-2.813,4.066-3.098c0.48-0.289,1.328-0.93,1.871-1.426
	c0.547-0.496,1.559-1.137,2.25-1.418c2.125-0.871,1.629-1.621-0.703-1.051c-3.172,0.766-1.617-0.27,2.844-1.898
	c2.141-0.781,4.164-1.586,4.508-1.785c0.781-0.461,1.406,0.379,1.125,1.504c-0.148,0.59-0.504,0.855-1.191,0.895
	c-0.996,0.055-5.301,2.895-6.129,4.039c-0.746,1.039-2.465,2.395-3.754,2.969c-0.668,0.297-1.387,0.777-1.605,1.07
	c-0.531,0.715-0.164,1.992,0.523,1.824c1.586-0.395,6.477-3.668,9.57-6.406c0.281-0.246,1.016-0.699,1.641-1.008
	c1.484-0.738,1.539-0.625,3.285,6.848C433.833,377.9,434.923,381.717,435.462,383.01z"/>
<path fill="#653B1E" d="M209.804,452.381c1.682,0.09,4.346-0.016,5.92-0.242c3.111-0.441,5.656-1.266,6.115-1.977
	c0.508-0.789-1.219-1.16-3.188-0.688c-5.475,1.313-11.902,0.633-13.787-1.465c-1.746-1.945-2.57-1.953-3.025-0.039l-0.32,1.344
	l2.615,1.449C206.239,451.932,207.341,452.244,209.804,452.381z"/>
<path fill="#653B1E" d="M249.247,342.037c0.674,0.047,0.785,0.004,1.271-0.508c0.764-0.797-0.867-1.613-3.158-1.578
	c-4.289,0.074-9.863-1.188-18.035-4.074c-3.428-1.211-8.896-4.574-10.447-6.426c-1.676-2-3.051-5.195-3.18-7.395
	c-0.188-3.195,1.875-7.492,4.885-10.16c0.854-0.758,1.607-1.551,1.676-1.762c0.066-0.219,0.852-0.805,1.74-1.309
	c0.887-0.504,1.68-1.113,1.758-1.359c0.09-0.289-0.225-0.242-0.895,0.125c-0.566,0.309-2.055,0.941-3.307,1.398
	c-2.609,0.961-4.143,2.43-6.186,5.918c-1.477,2.516-2.5,7.004-2.021,8.848c0.559,2.145,2.438,5.48,4.051,7.199
	c2.217,2.355,6.904,5.34,10.033,6.387c1.457,0.484,3.945,1.336,5.529,1.883c4.074,1.406,8.314,2.281,12.373,2.551
	C247.257,341.9,249.019,342.021,249.247,342.037z"/>
<path fill="#653B1E" d="M541.622,357.689c-1.148,0.438-2.57,0.73-3.16,0.656c-0.703-0.082-2.566,0.398-5.434,1.398
	c-3.945,1.379-4.445,1.477-5.172,1.035c-0.672-0.402-0.762-0.637-0.531-1.355c0.438-1.332,0.289-1.406-1.551-0.719
	c-1.863,0.688-2.246,1.281-1.863,2.859c0.242,1.004,0.199,1.035-2.141,1.598c-1.316,0.313-3.004,0.855-3.75,1.203
	c-0.914,0.422-1.398,0.492-1.469,0.207c-0.555-2.242-2.523-2.688-3.211-0.723c-0.199,0.57-0.219,1.43-0.039,1.906
	c0.281,0.766,0.078,1-1.813,2.059c-1.172,0.66-2.57,1.516-3.094,1.91c-1.152,0.855-2.027,1.094-2.898,0.805
	c-0.551-0.184-0.57-0.344-0.145-1.137c0.723-1.355,0.059-2.676-1.27-2.504c-0.852,0.109-1.164,0.434-1.535,1.598
	c-0.27,0.84-0.293,1.785-0.063,2.238c0.367,0.703,0.195,0.883-1.68,1.758c-1.145,0.539-3.293,1.719-4.77,2.621
	c-3.602,2.207-6.789,3.414-6.98,2.648c-0.074-0.309,0.246-0.871,0.715-1.242c1.055-0.836,1.215-1.805,0.402-2.398
	c-0.926-0.684-2.371-0.133-3.176,1.199c-0.594,0.984-0.613,1.402-0.133,2.457c0.555,1.215,0.531,1.289-0.508,1.547
	c-0.602,0.152-2.465,0.988-4.141,1.859c-1.672,0.871-4.094,1.953-5.375,2.402c-2.516,0.887-2.938,0.645-2.43-1.359
	c0.121-0.48,0.086-0.953-0.07-1.051c-0.582-0.352-2.551,1.887-2.656,3.016c-0.098,1.063-0.313,1.23-2.57,2.055
	c-2.523,0.922-3.555,0.906-2.547-0.035c0.313-0.293,0.469-0.961,0.336-1.473c-0.195-0.809-0.406-0.891-1.531-0.613
	c-1.094,0.273-1.492,0.707-2.52,2.742c-1.137,2.25-1.332,2.441-2.805,2.719c-2.82,0.527-3.23,0.668-8.543,2.895
	c-4.414,1.859-5.461,2.184-6.664,2.055c-1.18-0.121-1.758,0.043-3.297,0.93c-3.117,1.801-8.07,4.27-9.031,4.512
	c-0.5,0.121-1.313-0.051-1.813-0.387c-0.805-0.543-1.172-0.512-3.336,0.277c-1.336,0.484-3.594,1.625-5.02,2.527
	c-2.285,1.453-2.785,1.641-4.223,1.57c-1.82-0.086-4.246,0.434-6.414,1.375c-1.047,0.457-1.781,0.523-2.715,0.242
	c-1.09-0.324-1.516-0.254-2.91,0.488c-0.895,0.48-2.531,1.109-3.645,1.398c-1.111,0.293-3.32,1.07-4.914,1.727
	c-2.449,1.012-2.91,1.34-2.996,2.117c-0.146,1.297,0.352,1.324,3.059,0.176c1.305-0.555,3.846-1.539,5.65-2.191
	c3.127-1.133,3.322-1.156,4.119-0.531c0.898,0.707,1.5,0.5,5.852-1.992c1.461-0.844,1.594-0.848,2.797-0.125
	c1.578,0.953,2.055,0.824,5.105-1.363c3.23-2.316,6.129-3.996,6.762-3.918c0.273,0.035,0.82,0.523,1.211,1.09
	c0.633,0.914,0.887,0.984,2.297,0.633c0.871-0.215,2.797-1.145,4.281-2.066c1.477-0.922,3.164-1.965,3.742-2.324
	c2.391-1.473,3.664-1.855,4.102-1.23c0.469,0.672,1.25,0.434,8.141-2.453c2.117-0.887,4.563-1.684,5.43-1.77
	c0.871-0.086,2.805-0.742,4.297-1.453c1.492-0.715,3.699-1.727,4.91-2.238c6.332-2.719,6.184-2.676,7.262-2.316
	c0.621,0.207,1.5,0.148,2.191-0.148c1.004-0.43,5.488-3.188,7.426-4.566c1.039-0.746,2.668-1.52,4.438-2.125
	c1.422-0.484,1.672-0.445,2.195,0.309c0.328,0.469,0.734,0.813,0.906,0.773c0.391-0.094,6.266-4.254,7.031-4.977
	c0.754-0.711,4.648-3.184,5.258-3.336c0.27-0.066,0.793,0.168,1.156,0.523c0.867,0.84,2.586,0.41,4.297-1.074
	c1.918-1.664,8.578-5.766,9.77-6.012c2.613-0.543,7.738-1.992,10.23-2.898c1.516-0.547,3.781-1.152,5.043-1.34
	c3.059-0.453,11.691-3.797,11.949-4.629C545.692,356.936,543.681,356.92,541.622,357.689z"/>
<path fill="#653B1E" d="M239.489,298.666c1.752-0.582,4.064-1.246,5.143-1.48c1.439-0.313,2.16-0.684,2.691-1.398
	c0.686-0.922,0.682-1-0.1-1.477c-0.752-0.461-1.186-0.379-5.016,0.984c-3.529,1.254-6.984,2.852-7.52,3.477
	c-0.072,0.09,0.262,0.332,0.744,0.555C236.138,299.643,236.944,299.51,239.489,298.666z"/>
<path fill="#653B1E" d="M232.907,346.896c-3.098-1.457-6.451-2.891-7.455-3.184c-3.854-1.121-11.16-6.309-11.646-8.266
	c-0.244-0.977-1.109-1.551-2.002-1.328c-1.553,0.387-0.371,3.504,2.066,5.457c2.084,1.672,7.824,4.98,10.092,5.809
	c1.104,0.406,2.322,0.902,2.707,1.102c2.512,1.316,13.145,5.375,13.711,5.23c0.217-0.051,0.789,0.172,1.27,0.5
	c0.979,0.656,1.412,0.656,1.619,0c0.152-0.461-1.746-1.668-3.617-2.293C239.038,349.713,236.003,348.354,232.907,346.896z"/>
<path fill="#653B1E" d="M317.413,421.654c-0.172-0.289-0.451-1.039-0.629-1.664c-0.408-1.469-0.971-1.988-1.902-1.754
	c-1.346,0.336-1.08,3.109,0.412,4.273C316.011,423.064,317.812,422.346,317.413,421.654z"/>
<path fill="#653B1E" d="M491.708,341.225c1.375-0.234,2.203-1.297,1.797-2.313c-0.266-0.652-0.566-0.699-2.02-0.309
	c-2.656,0.715-8.074,2.492-12.348,4.055c-2.148,0.785-5.176,1.801-6.73,2.254c-5.074,1.484-11.23,3.563-16.434,5.547
	c-2.777,1.059-10.898,3.742-15.711,5.191c-1.617,0.484-1.699,0.582-1.82,2.156c-0.176,2.352,1.488,9.43,3.281,13.93
	c1.602,4.023,1.914,5.469,1.824,8.488c-0.047,1.57,0.086,2.02,0.934,3.129l0.98,1.297l2.695-0.914
	c3.137-1.063,6.043-2.266,11.09-4.582c2-0.918,4.98-2.117,6.625-2.664c2.91-0.969,4.926-1.895,9.902-4.551
	c1.332-0.707,3.926-1.699,5.777-2.199c2.758-0.754,3.512-1.105,4.172-1.957c0.789-1.016,0.789-1.047-0.078-1.438
	c-1.461-0.66-4.301,0.32-12.328,4.258c-2.832,1.391-4.383,2.047-14.109,5.949c-3.941,1.582-8.023,2.984-9.695,3.324l-2.891,0.594
	l-1-3.801c-0.547-2.086-1.813-6.602-2.809-10.027c-2.184-7.496-2.16-8.023,0.441-9.078c0.953-0.387,3.406-1.211,5.461-1.836
	c2.047-0.629,4.688-1.57,5.867-2.094c2.445-1.094,13.453-4.926,18.77-6.535c1.965-0.598,4.41-1.391,5.434-1.77
	c1.016-0.375,3.398-1.148,5.289-1.715l3.445-1.031l0.461,1c0.254,0.551,0.375,1.207,0.266,1.457s-0.199,0.949-0.191,1.547
	c0.012,1.156-0.059,1.207-4.66,3.469c-3.68,1.805-7.117,2.961-15.465,5.199c-7.457,2-8.348,2.313-8.645,3.039
	c-0.289,0.707-0.551,0.809-2.07,0.801c-0.953-0.004-3.328,0.301-5.281,0.68c-2.848,0.547-3.617,0.82-3.883,1.371
	c-0.18,0.379-1.313,1.734-2.516,3.016c-1.445,1.543-2.121,2.574-2.004,3.059c0.309,1.254,1.457,0.992,3.055-0.695
	c0.832-0.883,1.598-1.625,1.715-1.652c0.113-0.027,0.797-0.5,1.523-1.047c1.617-1.23,6.484-2.754,6.43-2.016
	c-0.023,0.27-0.992,1.113-2.164,1.875c-2.711,1.762-4.328,3.344-4.156,4.043c0.188,0.754,3.094-0.117,4.039-1.199
	c0.387-0.445,0.922-0.863,1.191-0.934c0.273-0.063,1.137-0.637,1.926-1.27s2.75-2.039,4.367-3.129
	c1.609-1.086,3.078-2.184,3.27-2.438c0.184-0.254,1.098-0.512,2.051-0.586l1.707-0.125l-4.527,3.922
	c-4.273,3.703-5.086,4.707-4.375,5.402c0.691,0.672,2.266-0.402,8.555-5.828c4.406-3.797,6.969-5.762,7.641-5.844
	c0.941-0.117,0.898-0.004-0.602,1.59c-0.883,0.945-1.727,1.746-1.859,1.777c-0.688,0.172-3.734,3.832-3.609,4.336
	c0.23,0.926,0.996,0.492,4.844-2.754c6.055-5.105,8.523-6.977,8.898-6.742c0.191,0.121,0.086,0.496-0.238,0.832
	c-0.324,0.332-1.324,1.758-2.223,3.164c-1.211,1.91-1.477,2.613-1.039,2.754c0.902,0.289,2.145-0.762,4.344-3.66
	c2.633-3.484,3.426-4.188,4.027-3.621c0.535,0.508,0.652,1.863,0.453,5.297c-0.207,3.617,0.055,5.777,0.766,6.297
	c0.793,0.586,1.008,0.504,1.77-0.668c0.484-0.738,0.535-1.434,0.203-2.785c-0.234-0.988-0.441-2.613-0.449-3.613
	s-0.145-3.336-0.309-5.188c-0.422-4.844-0.586-9.621-0.355-10.527C490.528,341.678,490.974,341.346,491.708,341.225z"/>
<path fill="#653B1E" d="M596.505,299.596c-9.863,2.848-13.137,3.566-13.082,2.863c0.02-0.254,0.535-0.703,1.145-0.992
	c3.164-1.512,8.371-8.953,9.137-13.055c0.098-0.531,0.309-1,0.465-1.039c0.16-0.043,0.461-1.438,0.672-3.105
	c0.383-2.969,0.352-3.188-1.539-10.848l-1.934-7.816l-1.832-1.773c-2.023-1.965-6.453-5.273-7.484-5.602
	c-0.367-0.117-1.313-0.637-2.109-1.16c-1.906-1.246-7.734-3.91-8.273-3.777c-0.234,0.055-1.32-0.285-2.414-0.754
	c-1.094-0.473-3.352-1.215-5.023-1.66c-1.668-0.441-3.742-1.113-4.621-1.496c-0.871-0.379-2.328-0.738-3.23-0.797
	c-0.906-0.059-2.422-0.285-3.367-0.5c-0.945-0.219-3.586-0.59-5.875-0.832l-4.156-0.441l-0.813-3.828
	c-0.453-2.105-0.891-5.176-0.977-6.824s-0.547-5.359-1.031-8.246c-0.477-2.887-0.953-5.777-1.055-6.418s-0.574-3.258-1.051-5.813
	c-0.91-4.895-1.605-12.531-1.418-15.637c0.055-1.016-0.289-3.844-0.777-6.285c-0.488-2.438-0.941-4.965-1.012-5.617
	c-0.605-5.504-1.672-11.098-2.352-12.371c-0.43-0.785-1.398-2.621-2.172-4.086c-0.766-1.457-1.609-2.668-1.875-2.691
	c-0.5-0.039-2.594,3.133-2.449,3.715c0.047,0.18,0.703,0.637,1.461,1.008c2.324,1.141,3.371,3.227,4.066,8.105
	c0.324,2.289,0.742,4.93,0.918,5.859c0.316,1.648,0.277,1.73-1.184,2.586c-0.836,0.484-1.961,1.445-2.508,2.125
	c-1.199,1.492-7.09,5.797-9.844,7.191c-3.883,1.973-5.719,3.07-5.637,3.387c0.043,0.18,0.402,0.48,0.793,0.672
	c0.582,0.277,1.281,0.105,3.723-0.91c3.375-1.406,6.574-3.711,13.074-9.406c1.762-1.539,2.164-1.391,2.586,0.98
	c0.258,1.461,0.199,2.027-0.223,2.133c-0.324,0.078-2.434,1.695-4.691,3.594c-2.266,1.898-4.453,3.531-4.871,3.637
	s-0.902,0.484-1.074,0.844c-0.375,0.777-4.695,3.422-6.227,3.809c-1.508,0.383-2.008,1.027-1.59,2.055
	c0.332,0.832,0.477,0.84,2.605,0.176c2.453-0.766,8.609-4.992,10.758-7.383c0.641-0.719,1.426-1.367,1.742-1.449
	c0.313-0.078,1.273-0.855,2.125-1.727c0.859-0.875,1.695-1.457,1.855-1.297c0.168,0.156,0.402,2.566,0.535,5.352
	c0.133,2.781,0.453,5.945,0.727,7.031c0.266,1.086,0.602,2.898,0.738,4.035c0.238,1.934,0.195,2.078-0.805,2.324
	c-0.582,0.145-2.152,1.246-3.48,2.449c-1.797,1.613-3.453,2.66-6.367,4.008c-2.168,1.004-4.469,1.953-5.117,2.117
	c-2.063,0.512-5.387,2.277-5.258,2.793c0.063,0.27,0.602,0.656,1.203,0.867c0.945,0.332,1.527,0.211,4.527-0.93
	c4.961-1.887,10.496-4.945,12.035-6.648c0.961-1.074,3.023-2.426,3.469-2.281c0.523,0.168,1,4.125,0.633,5.242
	c-0.188,0.563-1.461,1.938-2.832,3.047s-2.543,2.184-2.609,2.391c-0.063,0.199-0.887,0.777-1.824,1.273
	c-0.934,0.5-2.141,1.355-2.672,1.902c-0.531,0.543-2.25,1.695-3.816,2.563c-1.566,0.863-2.977,1.785-3.129,2.047
	c-0.379,0.629,1.156,1.277,2.324,0.988c1.375-0.344,4.824-2.328,5.934-3.422c0.57-0.555,1.484-1.246,2.035-1.543
	c0.551-0.293,2.301-1.758,3.887-3.258c1.59-1.5,3.07-2.77,3.297-2.828c0.445-0.109,1.324,3.848,1.305,5.883
	c-0.008,0.961-0.164,1.145-0.977,1.145c-0.707-0.004-1.785,0.75-3.938,2.742c-1.633,1.516-3.555,3.113-4.273,3.555
	s-1.66,1.051-2.094,1.352c-0.438,0.301-1.195,0.648-1.688,0.77c-1.266,0.316-1.688,1.359-0.906,2.223
	c0.734,0.816,2.516,0.496,3.828-0.688c0.484-0.438,1.531-1.234,2.32-1.773c1.703-1.16,5.063-4.617,4.945-5.094
	c-0.078-0.313,1.711-1.668,2.438-1.848c0.188-0.047,0.406,0.578,0.5,1.395c0.094,0.809,0.273,2.316,0.398,3.344
	c0.207,1.734,0.148,1.883-0.867,2.137c-1.383,0.34-3.773,2.141-6.602,4.969c-2.164,2.16-2.246,2.203-3.434,1.848
	c-1.148-0.344-1.246-0.313-1.703,0.543c-0.309,0.578-0.324,1.129-0.035,1.52c1.125,1.543,3.344,6.152,3.762,7.82
	c0.324,1.277,0.594,1.758,0.887,1.566c0.641-0.406,0.43-3.086-0.484-6.156c-0.695-2.324-0.723-2.758-0.195-2.887
	c0.344-0.086,1.277-0.977,2.086-1.98c0.805-1.004,2.695-2.766,4.195-3.918c3.105-2.367,3.547-2.328,3.828,0.352
	c0.492,4.605,0.555,7.004,0.203,7.488c-0.281,0.375-0.238,0.723,0.125,1.129c0.5,0.555,1.148,3.219,0.859,3.539
	c-0.078,0.086-1.25,1.059-2.602,2.16c-3.016,2.461-3.328,3-2.195,3.766c0.91,0.613,1.547,0.352,2.719-1.121
	c0.969-1.211,2.258-0.93,2.629,0.574c0.336,1.352-0.258,2.227-3.309,4.859c-1.352,1.164-2.813,2.516-3.27,3.008
	c-1.441,1.582-5.895,4.215-7.766,4.594c-2.824,0.57-3.23,1.57-1.113,2.754c1.121,0.629,1.258,0.613,3.25-0.363
	c1.141-0.563,2.898-1.664,3.898-2.449c2.078-1.633,2.813-1.918,3-1.168c0.148,0.594-0.25,3.555-0.488,3.613
	c-0.082,0.02-1.434,0.625-2.996,1.348c-1.57,0.727-3.281,1.426-3.813,1.559c-0.531,0.129-1.289,0.609-1.684,1.066
	c-0.691,0.797-0.688,0.844,0.145,1.406c0.906,0.609,0.684,0.66,6.156-1.418c1.867-0.707,1.969-0.695,2.598,0.211l0.652,0.941
	l0.727-1.113c0.398-0.617,0.664-1.359,0.594-1.645c-0.172-0.676,1.93-2.281,2.523-1.934c0.523,0.305-0.609,2.559-1.367,2.75
	c-0.5,0.125-1,1.461-0.82,2.199c0.059,0.223,0.621,0.277,1.25,0.125c0.629-0.156,1.195-0.09,1.254,0.152
	c0.309,1.234-5.77,8.602-6.66,8.07c-0.266-0.16-0.313-0.516-0.125-0.91c0.242-0.5,0.176-0.719-0.289-0.941
	c-0.688-0.332-2.227,0.348-2.633,1.16c-0.148,0.301-0.973,1.129-1.836,1.844c-1.922,1.59-2.453,2.535-1.691,2.992
	c0.59,0.355,0.293,1.461-0.434,1.645c-0.215,0.047-1.016,0.594-1.781,1.199c-1.5,1.207-4.617,2.891-6.539,3.551
	c-0.668,0.227-1.813,0.734-2.555,1.137c-0.742,0.395-2.258,1.066-3.383,1.484c-1.117,0.422-3.406,1.477-5.082,2.344
	s-3.785,1.918-4.688,2.328c-0.898,0.414-2.855,1.344-4.34,2.066c-2.613,1.266-5.391,2.09-13.195,3.93
	c-2,0.477-4.789,1.395-6.195,2.047c-1.844,0.852-3.164,1.227-4.727,1.34c-1.195,0.086-3.203,0.383-4.469,0.664
	c-2.098,0.465-2.293,0.59-2.215,1.371c0.145,1.418,1.512,1.441,6.98,0.133c9.008-2.164,23.559-6.313,24.813-7.086
	c0.68-0.41,1.969-1.09,2.867-1.504c0.898-0.41,2.594-1.297,3.758-1.969c1.172-0.672,2.543-1.395,3.047-1.602
	c0.508-0.211,3.07-1.262,5.695-2.336c5.094-2.086,11.086-5.207,12.703-6.633c0.539-0.469,1.242-0.926,1.563-1.004
	c0.32-0.082,1.828-1.199,3.348-2.484c3.184-2.684,3.051-2.559,4.84-4.609c0.742-0.855,1.637-1.828,1.984-2.168
	c0.348-0.336,1.344-1.723,2.211-3.082c1.594-2.496,1.766-3.84,0.578-4.555c-0.438-0.266-0.398-0.637,0.164-1.641
	c0.871-1.563,1.664-4.961,1.715-7.316c0.023-1.25,0.23-1.773,0.754-1.898c0.852-0.215,2.84,1.613,3.172,2.902
	c0.129,0.5,0.461,1.121,0.75,1.387c1.477,1.367,0.836-3.395-0.695-5.137c-0.484-0.551-1.652-1.52-2.594-2.156l-1.711-1.148
	l-0.055-2.273c-0.031-1.25,0.137-2.402,0.375-2.566c0.508-0.355,2.313,0.039,6.234,1.379c3.25,1.105,6.957,3.832,7.348,5.398
	c0.277,1.117,0.867,1.387,1.793,0.82c1.512-0.93,0.633-2.586-2.625-4.977c-2.656-1.945-7.984-4.398-10.977-5.039l-2.434-0.527
	l-0.191-1.77c-0.105-0.977-0.145-1.852-0.086-1.941c0.125-0.211,9.883,2.09,11.449,2.699c0.617,0.234,2.68,0.781,4.586,1.215
	c1.91,0.426,4.469,1.363,5.699,2.074c1.219,0.715,2.461,1.238,2.758,1.164c0.836-0.207,0.898-0.98,0.145-1.98
	c-1.012-1.352-3.34-2.207-12.492-4.57c-1.551-0.402-4.613-1.242-6.813-1.867c-2.199-0.633-4.324-1.129-4.723-1.109
	c-0.602,0.027-0.82-0.332-1.219-1.988c-0.289-1.215-0.313-2.191-0.066-2.445c0.711-0.73,5.527-0.703,8.48,0.047
	c0.641,0.164,1.453,0.328,1.797,0.371s0.922,0.188,1.293,0.32c0.363,0.133,1.137,0.309,1.715,0.391
	c0.574,0.078,2.035,0.438,3.234,0.797c1.203,0.359,2.988,0.813,3.969,1c0.977,0.195,3.102,0.859,4.719,1.48
	c1.609,0.617,3.039,1.102,3.164,1.07c0.281-0.07,3.809,1.48,4.5,1.98c0.27,0.195,1.559,0.879,2.867,1.52
	c4.289,2.105,8.059,5.168,9.703,7.879c1.707,2.797,3.109,7.559,3.594,12.207c0.695,6.676-2.867,15.23-8.164,19.594
	c-3.563,2.934-6.129,4.625-7.555,4.98c-0.836,0.207-1.297,0.578-1.441,1.164c-0.207,0.82-0.598,0.953-7.559,2.645
	c-4.031,0.977-7.742,1.984-8.234,2.238c-1.602,0.813-11.945,4.031-20.109,6.25c-4.375,1.191-10.32,2.93-13.211,3.859
	c-2.883,0.934-7.961,2.48-11.289,3.441c-3.32,0.957-8.641,2.656-11.813,3.766c-3.18,1.113-6.871,2.379-8.211,2.813
	s-4.582,1.684-7.203,2.781s-6.719,2.582-9.098,3.297c-5.324,1.598-16.551,5.438-19.777,6.758c-1.316,0.539-4.664,1.723-7.449,2.625
	c-4.996,1.629-8.352,2.754-12.332,4.137c-1.125,0.391-3.227,1.09-4.672,1.559c-1.441,0.469-6.156,2.02-10.477,3.441
	c-4.328,1.43-9.051,2.941-10.504,3.363c-4.715,1.355-10.844,3.332-13.494,4.348c-1.424,0.547-4.002,1.531-5.732,2.188
	c-1.73,0.66-6.852,2.402-11.385,3.871c-8.588,2.789-17.027,5.602-19.256,6.422c-6.08,2.242-8.35,3.141-10.828,4.289
	c-1.574,0.73-4.432,1.691-6.352,2.141c-2.104,0.488-3.895,1.113-4.512,1.582c-1.627,1.23-2.215,1.395-5.324,1.52
	c-3.883,0.152-15.127,2.945-18.65,4.629c-2.572,1.23-15.018,6.066-20.125,7.82c-1.537,0.527-4.77,1.809-7.186,2.848
	c-5.436,2.344-12.373,4.609-19.846,6.488c-6.623,1.664-16.031,4.551-24.262,7.441c-3.174,1.113-8.705,3.043-12.297,4.281
	c-3.588,1.242-8.539,3.023-11.01,3.957c-2.469,0.938-7.268,2.504-10.672,3.484c-6.473,1.867-7.447,2.414-7.059,3.973
	c0.248,1.004,1.461,0.914,4.588-0.344c1.539-0.613,3.959-1.406,5.377-1.762c1.422-0.348,3.902-1.141,5.506-1.754
	c6.771-2.582,13.152-4.895,16.311-5.906c1.855-0.59,6.299-2.145,9.873-3.445c6.779-2.473,11.252-3.836,24.834-7.574
	c10.594-2.922,13.242-3.781,18.547-6.02c2.42-1.023,5.482-2.246,6.816-2.719c1.328-0.473,3.086-1.105,3.9-1.414
	c0.813-0.305,2.814-1.051,4.445-1.656c5.729-2.137,11.297-4.395,13.34-5.422c1.287-0.648,4.623-1.668,8.926-2.727
	c7.35-1.809,8.867-1.852,10.262-0.309c0.34,0.379,1.477,0.824,2.533,0.996c1.055,0.168,2.902,0.875,4.102,1.563
	c1.205,0.684,3,1.582,3.99,1.988c0.994,0.41,2.902,1.488,4.24,2.402c1.34,0.91,2.641,1.613,2.893,1.555
	c0.891-0.195,1.107,0.551,0.332,1.164c-0.432,0.344-0.959,1.16-1.168,1.809c-0.211,0.652-0.826,2.391-1.367,3.855
	c-0.539,1.465-0.914,2.941-0.832,3.281c0.088,0.336-0.121,1.023-0.457,1.527c-0.467,0.695-0.488,1.18-0.088,2.059
	c0.568,1.242,0.24,1.723-1.48,2.148c-1.191,0.297-1.613-0.188-1.289-1.473c1.164-4.598,2.211-7.668,3.096-9.074
	c1.844-2.922,0.627-3.852-1.496-1.145c-1.25,1.59-1.494,1.742-2.613,1.613c-0.684-0.082-1.291-0.359-1.354-0.617
	c-0.227-0.91-1.07-0.75-1.768,0.328c-0.744,1.148-4.404,2.75-11.549,5.039c-1.715,0.551-4.211,1.367-5.549,1.816
	c-4.801,1.613-17.596,5.371-22.635,6.652c-2.826,0.719-7.828,2.227-11.109,3.355s-8.027,2.566-10.541,3.199
	c-8.686,2.172-19.928,6.781-22.68,9.297c-1.586,1.457-7.537,4.773-11.119,6.207c-9.193,3.672-13.455,5.18-16.33,5.773
	c-2.463,0.516-3.082,0.766-3.273,1.344c-0.732,2.191,2.09,2.18,8.336-0.023c12.648-4.469,17.191-6.629,23.633-11.246
	c2.438-1.746,7.066-4.07,10.225-5.129c0.926-0.309,3.014-1.082,4.637-1.711c1.625-0.633,5.016-1.648,7.535-2.266
	c2.518-0.621,6.502-1.816,8.852-2.66c2.352-0.848,6.064-2.035,8.252-2.641c2.186-0.609,7.482-2.113,11.768-3.344
	c4.289-1.23,8.004-2.168,8.26-2.086c0.594,0.191-1.113,8.066-1.848,8.543c-0.289,0.18-3.238,1.141-6.559,2.125
	c-3.314,0.98-6.623,1.977-7.34,2.215c-0.725,0.234-4.635,1.359-8.695,2.496c-12.746,3.57-19.113,6.453-29.838,13.52
	c-2.01,1.324-4.221,2.68-4.918,3.016c-0.697,0.332-1.969,1.074-2.83,1.648c-4.973,3.297-9.908,6.09-12.404,7.023
	c-1.566,0.582-3.244,1.258-3.727,1.492c-0.482,0.238-1.717,0.719-2.746,1.066c-1.027,0.352-3.258,1.273-4.955,2.047
	c-7.279,3.316-9.115,3.891-14.32,4.457c-7.438,0.805-9.908,0.762-14.648-0.258c-2.396-0.512-4.557-0.883-4.807-0.82
	c-0.248,0.063-1.359-0.496-2.467-1.238c-2.533-1.691-3.793-1.434-3.449,0.703c0.152,0.949,0.482,1.52,1.057,1.824
	c0.834,0.438,9.33,2.461,9.822,2.336c0.143-0.035,1.246,0.156,2.451,0.43c2.658,0.602,4.498,0.539,12.115-0.414
	c3.24-0.402,6.391-0.93,6.998-1.164c0.607-0.238,2.594-0.992,4.412-1.68c1.814-0.68,3.41-1.352,3.535-1.48
	c0.133-0.133,2.289-1.039,4.799-2.012c9.125-3.547,14.18-6.297,27.582-15.008c3.088-2.004,7.371-4.527,11.125-6.559
	c2.879-1.559,8.955-3.746,13.947-5.027c5.24-1.34,6.375-1.684,12.414-3.738c1.643-0.559,4.523-1.438,6.4-1.953
	c6.34-1.746,12.803-3.84,13.9-4.504c0.598-0.363,1.373-0.621,1.721-0.578s2.58-0.703,4.959-1.652
	c2.379-0.957,6.137-2.242,8.352-2.871c2.213-0.625,6.123-1.855,8.688-2.734s6.27-2.113,8.227-2.738
	c4.029-1.293,4.816-1.813,4.521-2.98c-0.111-0.449-0.037-1.598,0.158-2.555c0.199-0.957,0.371-2.738,0.379-3.969l0.012-2.227
	l2.391-0.715l2.391-0.715l3.988,2.543c2.199,1.398,4.047,2.762,4.113,3.027c0.061,0.266,1.082,0.941,2.252,1.492
	c6.018,2.844,8.871,4.469,9.311,5.289c0.611,1.152,1.684,0.918,2.758-0.602c0.672-0.945,0.701-1.195,0.174-1.434
	c-0.35-0.164-1.576-0.773-2.723-1.359c-1.15-0.586-3.004-1.465-4.131-1.949c-3.963-1.711-7.895-4.547-11.305-8.156
	c-1.988-2.105-2.322-2.156-6.684-1.082c-3.014,0.746-3.188,0.742-3.758-0.086c-0.326-0.473-0.754-0.824-0.943-0.777
	c-0.752,0.188-5.883-1.938-7.174-2.973c-0.754-0.605-2.922-1.82-4.824-2.711c-4.281-1.996-7.205-3.93-7.105-4.711
	c0.09-0.738,1.893-1.469,6.471-2.629c1.975-0.5,4.076-1.207,4.67-1.57c1.549-0.953,7.102-3.09,7.6-2.93
	c0.232,0.078,1.059-0.211,1.83-0.641c1.734-0.961,8.588-3.477,11.91-4.367c1.355-0.363,4.563-1.398,7.119-2.301
	c2.561-0.898,6.844-2.371,9.512-3.262c2.676-0.895,5.957-2.16,7.295-2.813c1.439-0.695,5.041-1.859,8.811-2.84
	c3.5-0.914,7.922-2.281,9.828-3.043c1.902-0.762,5.336-1.965,7.633-2.676c6.715-2.082,7.641-2.379,13.547-4.328
	c10.523-3.48,14.945-5.023,20.484-7.156c3.047-1.176,9.27-3.266,13.828-4.648c9.293-2.82,12.938-4.086,18.258-6.336
	c6.707-2.832,10.816-4.199,24.121-8.02c5.98-1.719,10.559-3.195,14.059-4.539c1.625-0.621,7.055-2.219,12.07-3.543
	c5.016-1.328,10.121-2.781,11.344-3.227c1.227-0.445,2.898-1.055,3.715-1.355c0.816-0.297,4.723-1.438,8.684-2.527
	c3.957-1.098,9.914-2.773,13.242-3.734c18.828-5.414,35.547-9.262,35.805-8.242c0.039,0.152-0.313,1.309-0.762,2.566
	c-0.934,2.551-2.668,5.418-4.668,7.703c-0.734,0.832-1.484,1.922-1.672,2.418c-0.516,1.332-4.547,5.754-7.145,7.828
	c-1.254,1-3.176,2.598-4.27,3.555c-1.984,1.719-5.539,4.496-9.5,7.414c-4.602,3.395-12.617,7.773-19.422,10.621
	c-1.109,0.461-3.117,1.309-4.461,1.883c-1.344,0.57-3.508,1.391-4.809,1.82c-4.621,1.535-6.496,2.215-8.66,3.16
	c-5.477,2.383-6.789,2.922-9.895,4.105c-1.828,0.695-3.824,1.676-4.441,2.184c-0.609,0.504-1.641,1.164-2.281,1.473
	c-0.984,0.469-1.117,0.719-0.883,1.668c0.195,0.793,0.57,1.184,1.297,1.344c1.234,0.277,2.969-0.723,3.039-1.75
	c0.078-1.32,4.629-3.445,4.914-2.301c0.078,0.32-0.195,0.66-0.621,0.766c-0.699,0.172-0.957,1.008-0.285,0.906
	c0.164-0.027,0.836-0.074,1.492-0.113c0.664-0.035,1.883-0.25,2.719-0.477c0.836-0.223,2.719-0.715,4.18-1.086
	c1.867-0.473,3.18-1.063,4.367-1.969c1.609-1.223,2.109-1.586,3.773-2.746c0.379-0.27,1.953-0.922,3.484-1.461
	c1.539-0.531,3.668-1.492,4.734-2.133c3.797-2.27,5.719-3.277,6.801-3.543c0.613-0.152,1.496-0.816,1.988-1.508
	c0.5-0.676,1.352-1.344,1.898-1.48c1.625-0.402,7.207-3.309,8.832-4.598c0.832-0.656,1.797-1.266,2.152-1.359
	c0.633-0.168,6.711-5.008,11.766-9.379c1.371-1.184,3.344-2.688,4.383-3.34c1.039-0.648,2.367-1.883,2.961-2.75
	c0.59-0.863,1.734-2.211,2.543-2.996s1.988-2.473,2.633-3.754s1.645-2.742,2.23-3.25c0.586-0.512,1.398-1.605,1.805-2.445
	c0.414-0.84,1.047-1.715,1.422-1.945c0.375-0.227,0.695-0.785,0.727-1.242s0.398-1.492,0.813-2.305
	c1.004-1.957,1.266-4.469,0.516-4.922C617.333,294.729,605.778,296.916,596.505,299.596z M542.825,275.873
	c-0.164,0.273-1.012,0.781-1.875,1.125l-1.578,0.621l-0.02-1.371c-0.012-0.754-0.105-1.785-0.199-2.293
	c-0.125-0.613,0.254-1.41,1.16-2.434c1.449-1.637,2.293-1.766,2.199-0.336c-0.035,0.492,0.094,1.633,0.277,2.543
	C542.974,274.631,542.989,275.596,542.825,275.873z M328.296,415.107c-0.508,1.465-1,3.18-1.094,3.816
	c-0.094,0.633-0.449,1.227-0.797,1.316c-0.346,0.09-0.953,0.34-1.346,0.559c-0.4,0.219-0.861,0.32-1.025,0.219
	c-0.465-0.281,0.26-3.902,1.23-6.133c0.48-1.102,0.836-2.148,0.795-2.32c-0.047-0.176,0.605-0.492,1.445-0.703
	C329.403,411.393,329.481,411.701,328.296,415.107z M334.659,412.967c-0.486,1.625-0.805,3.285-0.701,3.695
	c0.141,0.566-0.201,0.949-1.406,1.59c-1.99,1.063-2.367,1.16-2.5,0.621c-0.199-0.801,2.08-8.16,2.701-8.719
	c0.848-0.766,2.543-1.137,2.682-0.586C335.497,409.818,335.147,411.35,334.659,412.967z M341.573,414.357
	c0.174,0.41-0.088,0.777-0.822,1.141c-1.771,0.883-3.346,1.223-3.949,0.863c-0.436-0.262-0.432-0.793,0.014-2.328
	c0.318-1.094,0.773-2.188,1.014-2.422c0.236-0.238,0.377-0.66,0.309-0.934c-0.068-0.277,0.119-1.043,0.416-1.703
	c0.469-1.035,0.832-1.273,2.613-1.715c2.188-0.547,2.428-0.449,1.811,0.73C342.284,409.322,341.308,413.748,341.573,414.357z
	 M348.302,413.057c-0.248,0.41-5.428,2.023-5.504,1.719c-0.037-0.148,0.436-1.375,1.045-2.727s1.482-3.379,1.932-4.5
	c0.729-1.813,1.693-2.688,2.451-2.23c0.139,0.086-0.027,1.355-0.383,2.828c-0.531,2.223-0.533,2.84-0.01,3.656
	C348.179,412.342,348.39,412.904,348.302,413.057z M361.431,403.732c0.396,0.953-0.578,4.559-1.441,5.344
	c-0.729,0.656-0.689,0.645-1.512,0.363c-0.363-0.125-0.48-0.277-0.26-0.336c0.225-0.059,0.967-1.477,1.641-3.148
	C360.894,403.416,361.151,403.053,361.431,403.732z M357.786,398.932c0.201-1.141,0.27-1.188,1.211-0.855
	c0.551,0.195,1.029,0.555,1.068,0.793c0.035,0.246,0.148,0.875,0.244,1.402c0.154,0.836,0.035,0.965-0.947,1.008
	c-1.037,0.047-1.137,0.188-1.207,1.707c-0.045,0.91-0.248,1.938-0.459,2.285c-0.742,1.227-0.873,2.609-0.352,3.664
	c0.504,1.012,0.469,1.074-0.799,1.387c-1.299,0.324-1.326,0.305-1.348-0.98c-0.02-1.32,0.656-4.152,1.777-7.426
	C357.306,400.943,357.673,399.604,357.786,398.932z M543.888,353.287c-0.328,0.082-0.531-0.047-0.453-0.289
	c0.074-0.242,0.305-0.48,0.5-0.527c0.199-0.051,0.398,0.082,0.453,0.293C544.442,352.971,544.216,353.209,543.888,353.287z
	 M552.966,349.811c-0.879,0.496-1.676,0.953-1.77,1.027c-0.363,0.281-1.582,0.145-1.668-0.188c-0.078-0.316,0.633-0.75,2.633-1.625
	c0.406-0.18,1.109-0.273,1.566-0.215C554.423,348.9,554.294,349.072,552.966,349.811z"/>
<path fill="#653B1E" d="M544.38,333.119c0.586-0.707,1.715-1.637,2.504-2.066c0.785-0.434,1.605-1.176,1.824-1.652
	c0.473-1.043,7.941-4.75,10.105-5.02c0.766-0.094,2.348-0.707,3.512-1.367c1.164-0.652,3.574-1.898,5.367-2.762
	c1.789-0.867,3.922-2.129,4.734-2.809c1.238-1.039,1.898-1.305,4.047-1.633c3.695-0.559,4.398-0.785,4.855-1.535
	c0.477-0.797-0.25-2.406-1.141-2.516c-0.332-0.039-2.652,0.684-5.172,1.609c-2.512,0.926-6.797,2.258-9.512,2.957
	c-2.727,0.695-5.938,1.691-7.148,2.203c-2.324,0.984-8.422,3.105-14.348,4.98c-1.965,0.625-5.988,2.004-8.957,3.07
	c-2.961,1.066-6.813,2.383-8.547,2.93c-1.742,0.543-3.266,1.09-3.391,1.215c-0.555,0.57-7.547,2.949-17.68,6.023
	c-2.465,0.746-4.824,1.598-5.242,1.887c-0.543,0.379-0.988,0.398-1.527,0.074c-0.621-0.375-0.922-0.332-1.613,0.215
	c-1.352,1.078-1.5,3.547-0.773,13.398c0.141,1.945,0.156,4.195,0.039,5c-0.305,1.926,0.121,3.484,1.09,4.074
	c0.793,0.473,1.387,0.328,5.855-1.453c0.711-0.285,4.414-1.477,8.242-2.66c3.828-1.176,7.457-2.328,8.066-2.563
	c0.613-0.23,4.148-1.398,7.855-2.598c3.711-1.195,7.629-2.66,8.707-3.258c1.074-0.594,3.613-1.746,5.637-2.563
	c2.023-0.813,4.289-1.984,5.023-2.602c0.73-0.621,2.234-1.551,3.332-2.07c1.094-0.516,2.605-1.449,3.352-2.066
	c0.746-0.625,2.141-1.488,3.094-1.926c0.957-0.434,2.473-1.613,3.379-2.629c2.352-2.637,4.742-4.695,5.758-4.945
	c1.008-0.254,2.133-2.676,1.59-3.449c-0.516-0.734-1.309-0.41-3.457,1.43c-1.047,0.898-2.266,1.852-2.711,2.121
	c-0.438,0.266-1.547,1.301-2.465,2.293c-0.914,1-2.539,2.309-3.617,2.914c-1.074,0.602-2.645,1.617-3.488,2.246
	c-0.844,0.637-3.039,2.074-4.875,3.207c-3.922,2.414-9.059,4.793-16.336,7.563c-3.18,1.215-3.969,1.477-8.789,2.918
	c-2.488,0.746-5.602,1.797-6.906,2.332c-3.047,1.246-13.445,4.246-14.625,4.219c-0.957-0.02-1.164-0.805-1.008-3.84
	c0.055-1.188,0.184-1.32,1.266-1.371c0.977-0.043,1.59-0.488,3.32-2.402c1.555-1.715,2.766-2.641,4.488-3.438
	c1.297-0.598,2.641-1.242,2.984-1.434c1.301-0.711,0.723,0.465-1.277,2.613c-2.43,2.613-2.578,3.883-0.383,3.336
	c0.734-0.184,1.297-0.477,1.254-0.652c-0.105-0.414,4.594-5.176,7.41-7.527c2.07-1.719,4.969-2.938,5.156-2.172
	c0.051,0.195-0.645,1.102-1.547,2.023c-0.902,0.918-1.523,1.859-1.367,2.094c0.504,0.809,2.387,0.195,3.672-1.199
	c0.68-0.746,1.383-1.391,1.566-1.43c0.184-0.047,0.559-0.508,0.832-1.02c0.516-0.961,3.18-3.621,3.773-3.77
	c0.82-0.203,0.375,0.652-0.844,1.617c-1.473,1.156-1.789,2.082-0.922,2.719c0.848,0.629,1.094,0.465,4.164-2.746
	c1.891-1.977,3.82-3.543,5.754-4.668c3.371-1.957,3.41-1.977,2.949-1.219C540.091,335.338,542.724,335.123,544.38,333.119z
	 M514.743,344.334c-0.223,0.055-0.34-0.098-0.262-0.34s0.211-0.461,0.309-0.484c0.094-0.023,0.211,0.129,0.262,0.34
	C515.106,344.061,514.966,344.275,514.743,344.334z M537.255,331.818c-0.73,0.395-2.586,1.145-4.129,1.668
	c-1.543,0.527-4.348,1.785-6.246,2.797c-2.234,1.188-4.969,2.281-7.738,3.082c-2.355,0.688-5.078,1.715-6.051,2.285
	c-2.805,1.641-6.656,3.137-9.781,3.801l-2.891,0.613l0.148,1.102c0.078,0.605,0.41,1.305,0.742,1.547
	c0.328,0.246,0.547,0.504,0.477,0.578s-0.695,0.586-1.395,1.141c-1.219,0.965-1.277,0.977-1.445,0.289
	c-0.328-1.316-0.555-7.355-0.328-8.813c0.215-1.395,0.246-1.422,1.137-0.941c0.813,0.434,1.109,0.387,2.48-0.395
	c1.621-0.918,2.426-1.203,9.547-3.371c3.684-1.125,10.332-3.547,14.293-5.207c0.609-0.254,2.281-0.84,3.727-1.305
	c1.441-0.461,3.797-1.258,5.227-1.758c1.438-0.508,3.711-1.234,5.063-1.621s4.922-1.422,7.934-2.305
	c3.973-1.16,5.133-1.402,4.23-0.883c-4.922,2.844-6.992,3.941-10.113,5.359C540.188,330.369,537.989,331.424,537.255,331.818z"/>
<path fill="#653B1E" d="M537.802,257.08c1.539-1,2.289-2.875,1.328-3.324c-0.734-0.348-4.969,2.176-5.07,3.023
	c-0.047,0.336,0.195,0.816,0.531,1.059C535.341,258.393,536.044,258.229,537.802,257.08z"/>
<path fill="#653B1E" d="M355.526,271.275c0.033-1.195,0.537-4.73,0.916-6.422c0.303-1.344-0.271-2.07-1.152-1.457
	c-0.693,0.484-1.93,4.023-2.066,5.922c-0.24,3.266-1.125,10.398-1.506,12.121c-0.217,0.984-0.225,2.035-0.012,2.332
	c0.209,0.301,0.531,0.508,0.715,0.461c0.4-0.098,2.055-6.699,1.867-7.445c-0.066-0.285,0.176-1.422,0.541-2.527
	C355.198,273.15,355.513,271.811,355.526,271.275z"/>
<path fill="#653B1E" d="M270.626,205.1c-1.697-1.105-3.424-0.273-2.996,1.449c0.047,0.195,0.73,0.559,1.516,0.801
	c1.141,0.359,2.107,0.277,4.869-0.406c3.607-0.895,5.268-0.734,5.584,0.531c0.209,0.852,1.619,1.73,2.441,1.527
	c0.373-0.094,0.83-0.023,1.012,0.156c0.184,0.176,0.754,0.215,1.277,0.086c1.076-0.266,5.688-0.539,10.059-0.59
	c2.576-0.031,2.979-0.121,3.162-0.684c0.172-0.512,0.262-0.469,0.432,0.195c0.115,0.461,0.525,1.23,0.908,1.715
	c0.59,0.738,0.908,0.809,2.027,0.426c1.965-0.668,1.65-1.559-0.859-2.418c-3.25-1.117-4.693-1.254-9.766-0.93
	c-6.006,0.387-7.725,0.234-7.961-0.703c-0.293-1.18-0.959-1.539-2.246-1.223c-0.67,0.168-2.834,0.41-4.807,0.531
	C272.563,205.732,271.433,205.623,270.626,205.1z"/>
<path fill="#653B1E" d="M295.749,249.904c-0.266-0.48-0.621-4.27-0.666-7.098c-0.049-2.914-0.064-3.023-0.553-2.898
	c-0.625,0.152-1.557,2.289-1.729,3.969c-0.09,0.855,0.287,3.832,0.846,6.617c0.957,4.797,1.059,5.086,2.016,5.664
	c0.615,0.363,1.232,0.449,1.578,0.207c0.479-0.332,0.42-0.824-0.373-3.262C296.353,251.529,295.849,250.088,295.749,249.904z"/>
<path fill="#653B1E" d="M390.136,335.248c-0.34,1.008,1.184,2.383,2.645,2.383c0.605,0,1.645,0.219,2.305,0.496
	c0.658,0.27,2.232,0.371,3.496,0.223c3.148-0.363,4.641-0.691,4.861-1.063c0.316-0.523-0.857-1.141-1.75-0.918
	c-1.494,0.371-4.846-0.086-7.496-1.02C391.167,334.279,390.472,334.264,390.136,335.248z"/>
<path fill="#653B1E" d="M268.769,181.131c-0.439,0.105-1.008,0.582-1.264,1.059c-0.627,1.172,0.17,1.539,2.465,1.141
	c5.088-0.887,5.492-1,5.205-1.453C274.864,181.385,270.048,180.818,268.769,181.131z"/>
<path fill="#653B1E" d="M277.622,193.904c-0.76,0.191-0.701,2.191,0.072,2.453c0.949,0.313,4.902,0.422,7.084,0.191
	c1.086-0.117,2.506-0.023,3.15,0.207c0.74,0.262,1.867,0.234,3.02-0.07c2.914-0.77,4.355-0.703,5.463,0.246
	c1.092,0.934,3.537,1.145,6.078,0.52c2.301-0.563,9.32-0.746,10.516-0.273c2.855,1.129,3.488,1.191,7.27,0.715
	c2.189-0.273,4.873-0.449,5.959-0.387c1.09,0.066,2.047,0.008,2.127-0.129c0.084-0.137,0.752-0.145,1.488-0.023
	c1.639,0.277,2.584,0.094,2.787-0.547c0.416-1.293-2.586-1.633-11.063-1.254c-2.313,0.102-5.074-0.02-6.139-0.266
	c-1.807-0.426-3.436-0.406-12.068,0.133c-2.574,0.156-3.629,0.035-4.588-0.539c-1.572-0.953-2.441-1.051-5.293-0.605
	c-1.264,0.195-3.031,0.246-3.926,0.109c-0.896-0.141-1.83-0.117-2.074,0.059c-0.709,0.496-4.559,0.41-7.041-0.148
	C279.185,194.01,277.915,193.834,277.622,193.904z"/>
<path fill="#653B1E" d="M278.37,327.088c-0.457-0.656-1.52-0.379-1.617,0.43c-0.129,1.059,1.369,2.688,3.047,3.305
	c0.875,0.32,2.549,1.105,3.717,1.742c2.111,1.152,4.666,1.914,12.033,3.582c8.238,1.871,10.295,2.07,11.355,1.113
	c0.578-0.523,0.939-0.445,2.566,0.543c2.117,1.289,2.842,1.258,4.281-0.199c1.102-1.117,1.648-1.043,3.178,0.406
	c0.482,0.457,1.492,0.871,2.248,0.922s1.689,0.031,2.074-0.043c1.307-0.246,3.936-1.855,4.012-2.457
	c0.121-0.992-0.719-1.188-1.832-0.422c-1.334,0.914-3.9,0.887-5.629-0.066c-0.803-0.445-1.705-0.586-2.484-0.391
	c-0.668,0.168-1.627,0.395-2.129,0.5c-2.934,0.645-4.441-2.004-6.266-11.016c-0.68-3.371-1.195-6.645-1.143-7.27
	c0.053-0.621-0.139-2.805-0.426-4.848c-0.287-2.047-0.57-4.613-0.631-5.715c-0.055-1.098-0.408-3.266-0.779-4.813
	c-0.373-1.551-0.852-4.711-1.07-7.023c-0.289-3.051-0.754-5.336-1.697-8.332c-1.867-5.945-2.504-8.891-3.041-14.063
	c-0.283-2.762-0.752-5.254-1.178-6.285c-1.076-2.594-1.816-1.977-1.602,1.336c0.566,8.535,1.566,14.887,2.561,16.281
	c0.578,0.805,1.443,4.035,2.561,9.586c0.15,0.738,0.299,1.977,0.328,2.75c0.027,0.773,0.441,3.676,0.922,6.449
	c0.789,4.578,1.686,12.25,2.16,18.492c0.098,1.309,0.758,4.723,1.467,7.582c1.43,5.77,1.367,6.32-0.715,6.242
	c-1.422-0.051-2.553-0.289-11.07-2.34C287.397,331.58,279.278,328.385,278.37,327.088z"/>
<path fill="#653B1E" d="M362.862,327.791c2.221-0.551,7.982-0.832,8.998-0.445c0.52,0.199,1.34,0.273,1.83,0.164
	c0.705-0.156,0.82-0.367,0.555-1.02c-0.621-1.527-7.209-2.137-11.568-1.074c-1.857,0.453-4,1.652-3.877,2.168
	C358.919,328.049,361.317,328.174,362.862,327.791z"/>
<path fill="#653B1E" d="M331.653,310.279c-0.076-1.344-0.164-1.48-0.766-1.203c-0.375,0.172-0.883,1.148-1.129,2.164
	c-0.551,2.25-0.705,9.027-0.248,10.863c0.268,1.082,0.477,1.297,1.096,1.145c0.563-0.137,0.697-0.445,0.516-1.168
	c-0.131-0.539-0.146-1.352-0.029-1.813c0.117-0.457,0.148-1.859,0.072-3.113s0.023-2.977,0.221-3.82
	C331.581,312.49,331.702,311.115,331.653,310.279z"/>
<path fill="#653B1E" d="M260.999,228.232c-0.057,0.43,0.381,0.883,1.24,1.281c1.877,0.871,8.266,2.371,10.701,2.508
	c1.129,0.063,2.609,0.156,3.291,0.207c0.68,0.047,2.156-0.117,3.279-0.375c2.775-0.629,2.258-1.25-1.08-1.293
	c-4.4-0.059-11.355-1.188-13.873-2.254C261.976,227.209,261.128,227.193,260.999,228.232z"/>
<path fill="#653B1E" d="M299.851,226.104c-0.459-0.445-2.527-0.008-2.715,0.574c-0.068,0.223-0.582,0.629-1.129,0.902
	c-0.549,0.273-1.561,1.336-2.244,2.359c-0.998,1.508-1.18,2.129-0.916,3.184c0.182,0.727,0.473,1.402,0.648,1.508
	c0.582,0.352,0.93,0.047,1.322-1.172c0.703-2.18,1.766-3.777,2.654-4C298.56,229.189,300.38,226.623,299.851,226.104z"/>
<path fill="#653B1E" d="M266.343,193.795c-0.229,0.773,1.076,1.836,2.311,1.879c2.125,0.082,3.482-0.32,3.32-0.973
	c-0.078-0.316-0.355-0.52-0.619-0.457c-0.26,0.063-1.477-0.078-2.699-0.316C267.431,193.686,266.392,193.627,266.343,193.795z"/>
<path fill="#653B1E" d="M344.284,251.744c0.438,0.805,1.582,0.906,1.391,0.121c-0.059-0.23,0.014-1.023,0.164-1.762
	c0.449-2.266,0.775-7.262,0.482-7.438c-0.607-0.367-1.279,0.133-1.107,0.824c0.117,0.469-0.111,0.855-0.645,1.07
	c-0.664,0.266-0.805,0.691-0.707,2.129c0.066,0.98,0.09,2.344,0.055,3.02C343.876,250.385,344.042,251.303,344.284,251.744z"/>
<path fill="#653B1E" d="M384.778,194.768c0.438-0.203,0.73-1.172,0.885-2.91c0.205-2.301,0.148-2.656-0.475-3.031
	c-0.525-0.316-0.809-0.285-1.105,0.121c-0.408,0.547-0.424,1.215-0.125,4.406C384.101,194.869,384.194,195.037,384.778,194.768z"/>
<path fill="#653B1E" d="M347.085,268.834c0.814-0.441,0.643-1.578-0.254-1.691c-0.842-0.102-1.404,0.727-1.904,2.797
	c-0.42,1.734-0.279,3.074,0.43,4.09c0.633,0.91,1.199,0.172,0.965-1.27C346.009,270.811,346.308,269.26,347.085,268.834z"/>
<path fill="#653B1E" d="M324.831,234.986c1.885-0.742,2.203-1.32,1.1-1.984c-0.809-0.488-3.705,0.316-4.893,1.359
	c-0.635,0.559-1.438,0.895-2.182,0.918c-1.332,0.035-1.768,1.047-0.77,1.781c0.328,0.242,0.57,0.879,0.568,1.488
	c0,0.59,0.4,1.785,0.898,2.652c0.492,0.867,1.041,1.547,1.219,1.5c0.463-0.113,0.961-2.473,0.725-3.426
	C321.142,237.846,322.722,235.814,324.831,234.986z"/>
<path fill="#653B1E" d="M361.751,277.463c0.082-0.574,0.359-1.645,0.611-2.379c0.791-2.27,1.242-4.305,1.229-5.566
	c-0.01-0.664,0.354-1.695,0.801-2.293c0.939-1.246,0.334-1.996-1.139-1.398c-0.93,0.375-1.59,2.465-3.297,10.465
	c-0.475,2.234-1.291,5.344-1.811,6.914c-0.52,1.574-1.043,3.195-1.168,3.605c-0.25,0.867-2.057,6.527-3.201,10.039
	c-0.43,1.332-0.732,2.641-0.668,2.898c0.063,0.266,0.438,0.398,0.83,0.301c0.465-0.113,1.133-1.363,1.932-3.617
	c0.67-1.891,1.398-3.938,1.621-4.551c2.971-8.215,3.891-10.98,3.793-11.383c-0.064-0.258-0.021-0.813,0.1-1.227
	C361.501,278.857,361.667,278.041,361.751,277.463z"/>
<path fill="#653B1E" d="M362.491,211.869c-0.416-2.82-0.703-3.313-1.709-2.902c-0.711,0.285-0.723,0.531-0.143,2.555
	c0.352,1.234,0.793,2.457,0.979,2.727C362.368,215.314,362.823,214.084,362.491,211.869z"/>
<path fill="#653B1E" d="M328.007,262.939c0.439,0.266,1.15,0.34,1.584,0.164c0.604-0.246,0.742-0.672,0.615-1.895
	c-0.09-0.867-0.084-2.281,0.012-3.141c0.135-1.211,0.047-1.637-0.396-1.902c-0.443-0.273-0.539-0.203-0.412,0.305
	c0.088,0.352-0.01,0.688-0.221,0.742c-0.207,0.051-0.469-0.27-0.58-0.711c-0.174-0.691-0.34-0.727-1.18-0.266
	c-1.691,0.926-2.09,0.953-2.289,0.164c-0.123-0.5,0.229-1.102,1.012-1.738c1.412-1.148,2.023-2.25,1.521-2.742
	c-0.84-0.816-3.861,2.563-3.174,3.547c0.225,0.324,0.129,0.457-0.281,0.41c-0.859-0.105-1.525,1.148-1.063,1.996
	c0.236,0.43,1.041,0.754,2.098,0.84c1.496,0.121,1.742,0.281,1.953,1.254c0.135,0.613,0.189,1.426,0.121,1.805
	C327.255,262.193,327.517,262.643,328.007,262.939z"/>
<path fill="#653B1E" d="M316.116,236.936c-0.488,0.512-0.184,3.73,0.443,4.625c0.625,0.895,0.824,0.133,0.469-1.777
	c-0.178-0.941-0.225-2.113-0.102-2.594C317.159,236.268,316.845,236.17,316.116,236.936z"/>
<path fill="#653B1E" d="M341.87,225.725c-2.404,0.598-4.637,4.441-3.109,5.359c0.656,0.398,1.469-0.137,2.566-1.684
	c0.625-0.879,1.455-1.961,1.846-2.406C344.097,225.939,343.468,225.33,341.87,225.725z"/>
<path fill="#653B1E" d="M340.683,307.592c0.352-6.453,0.449-7.148,1.031-7.699c0.621-0.586-0.012-1.258-0.955-1.023
	c-1.123,0.281-1.736,3.289-2.252,11.086c-0.713,10.656-0.645,13.664,0.309,14.242c0.742,0.445,1.449-0.375,1.283-1.488
	c-0.096-0.641-0.096-1.547,0-2.02c0.094-0.469,0.084-1.484-0.033-2.262c-0.109-0.777-0.078-2.426,0.072-3.66
	C340.29,313.525,340.532,310.303,340.683,307.592z"/>
<path fill="#653B1E" d="M300.45,169.166c0.152,0.617,0.502,1.141,0.773,1.164c0.727,0.059,3.652-0.895,4.068-1.324
	c0.197-0.199,0.199-0.66,0.006-1.012c-0.199-0.371-0.137-0.805,0.148-1.004c0.273-0.191,0.357-0.488,0.184-0.664
	c-0.186-0.18-0.641-0.09-1.086,0.215c-0.428,0.289-1.154,0.449-1.631,0.363c-0.543-0.102-1.207,0.082-1.799,0.492
	C300.382,167.9,300.233,168.299,300.45,169.166z"/>
<path fill="#653B1E" d="M324.513,156.127c-0.869,1.055-0.012,1.418,2.791,1.18c1.285-0.109,3.061-0.211,3.945-0.238
	c2.24-0.059,3.361-0.316,3.256-0.746c-0.131-0.52-1.35-0.773-3.205-0.664c-0.873,0.051-2.352-0.051-3.289-0.227
	C325.944,155.053,325.3,155.178,324.513,156.127z"/>
<path fill="#653B1E" d="M322.216,152.486c4.902-2.207,5.443-2.543,5.268-3.25c-0.129-0.516-0.918-0.363-6.467,1.258
	c-5.48,1.602-6.398,1.969-6.865,2.746c-0.307,0.512-0.377,1.133-0.16,1.445C314.515,155.432,317.36,154.674,322.216,152.486z"/>
<path fill="#653B1E" d="M354.403,183.619c-0.283,0.195-1.377,0.352-2.424,0.344c-6.234-0.035-9.824-0.199-11.195-0.512
	c-0.855-0.191-2.807-0.336-4.33-0.316c-11.787,0.125-14.834,0.012-16.582-0.629c-2.391-0.871-4.914-1.051-9.189-0.656
	c-5.592,0.52-7.889,0.348-10.137-0.746c-1.23-0.598-2.555-0.852-4.111-0.777c-3.08,0.141-9.318,0.074-10.777-0.113
	c-1.748-0.227-2.598,0.102-2.85,1.098c-0.166,0.648-0.082,1,0.32,1.293c0.443,0.328,2.666,0.359,4.686,0.07
	c0.215-0.027,1.297-0.07,2.408-0.086c1.107-0.02,3.061-0.09,4.334-0.156c1.49-0.078,2.857,0.148,3.803,0.629
	c1.729,0.871,2.33,0.969,5.563,0.906c1.33-0.023,4.033-0.078,6.01-0.121c2.033-0.039,5.281,0.293,7.479,0.762
	c2.707,0.582,5.154,0.777,8.084,0.648c5.275-0.234,12.553,0.016,13.473,0.461c0.381,0.188,1.887,0.371,3.342,0.406
	c1.457,0.035,3.113,0.102,3.676,0.148c0.57,0.039,2.652-0.02,4.629-0.133c1.975-0.113,3.875-0.137,4.227-0.047
	c0.674,0.168,1.666-0.531,1.938-1.379C356.993,184.049,355.065,183.158,354.403,183.619z"/>
<path fill="#653B1E" d="M340.181,159.217c0.988,0.25,2.773,0.09,6.039-0.543c2.551-0.492,4.76-0.895,4.918-0.898
	c0.15,0,0.33-0.168,0.396-0.367c0.066-0.203-1.816-0.305-4.18-0.227c-2.367,0.082-5.018-0.02-5.895-0.219
	c-1.943-0.449-2.66-0.305-2.766,0.563C338.556,158.65,338.733,158.857,340.181,159.217z"/>
<path fill="#653B1E" d="M328.132,168.158c-1.188,0.148-2.43,0.285-2.758,0.305c-0.33,0.02-0.732,0.055-0.893,0.078
	c-0.162,0.023-0.342-0.16-0.402-0.406c-0.18-0.715-1.656-1.543-2.424-1.352c-0.848,0.211-1.902,1.855-1.707,2.656
	c0.078,0.316,0.74,0.766,1.471,0.992c1.049,0.328,2.473,0.184,6.811-0.691c6.637-1.336,7.791-1.406,7.643-0.465
	c-0.549,3.453,0.338,3.598,10.029,1.684c8.029-1.594,9.84-1.652,10.615-0.359c1.068,1.777,2.133,1.938,9.4,1.375
	c7.713-0.594,8.16-0.582,10.418,0.242c1.205,0.441,2.65,0.832,3.217,0.863c0.561,0.031,1.057,0.063,1.098,0.074
	c0.041,0.008,0.316-0.156,0.619-0.363c0.85-0.594,0.27-2.148-0.814-2.195c-0.508-0.02-1.688-0.188-2.623-0.367
	c-2.426-0.469-7.125-0.555-12.191-0.223c-3.936,0.258-4.541,0.191-6.037-0.684c-2.59-1.512-4.719-1.523-13.559-0.102
	c-5.469,0.883-6.391,0.832-6.883-0.367c-0.248-0.609-0.857-0.82-2.584-0.914C333.478,167.771,330.692,167.846,328.132,168.158z"/>
<path fill="#653B1E" d="M204.466,325.533c0.525-0.289,0.631-0.707,0.404-1.617c-0.166-0.676-0.043-2.398,0.277-3.824
	c0.559-2.5,1.346-3.941,4.592-8.406c0.826-1.133,2.25-3.094,3.16-4.348c0.912-1.258,3-3.508,4.637-5.004
	c2.803-2.555,4.156-3.465,7.629-5.117c1.965-0.934,6.285-3.375,9.053-5.113c1.541-0.973,3.436-1.75,5.883-2.43
	c1.986-0.547,3.918-1.277,4.301-1.621c0.828-0.746,1.215-0.582,1.521,0.648c0.125,0.504,0.459,1.176,0.744,1.492
	c0.787,0.867,3.064,8.484,2.662,8.895c-0.184,0.188-2.334,1.281-4.779,2.426c-5.789,2.715-7.125,3.5-7.215,4.234
	c-0.041,0.332,0.176,0.789,0.48,1.02c0.469,0.344,0.951,0.199,2.965-0.883c3.463-1.859,7.84-3.648,8.68-3.543
	c0.555,0.066,0.787,0.461,0.996,1.68c0.266,1.547,0.227,1.613-1.283,2.27c-2.482,1.086-3.42,2.043-3.25,3.328
	c0.131,1.016,0.227,1.082,0.973,0.66c2.252-1.285,4.338-2.191,4.885-2.125c0.367,0.047,0.736,0.586,0.928,1.359
	c0.215,0.863,0.691,1.484,1.469,1.922c0.635,0.355,2.852,2.191,4.932,4.082c3.381,3.074,4.188,3.594,7.725,4.969
	c2.174,0.84,4.209,1.723,4.529,1.957c0.756,0.559,1.736,0.082,1.686-0.813c-0.023-0.465-0.986-1.215-2.748-2.137
	c-4.723-2.48-8.068-4.625-9.283-5.941c-0.645-0.703-2.221-2.203-3.506-3.328c-1.512-1.324-2.338-2.332-2.332-2.844
	c0.006-0.434-0.199-0.941-0.451-1.129c-0.254-0.188-0.818-1.289-1.256-2.453c-0.719-1.906-0.732-2.234-0.127-3.316
	c0.609-1.09,0.605-1.223-0.074-1.5c-0.545-0.223-1.02-1.148-1.771-3.473c-0.568-1.746-1.574-4.348-2.238-5.785
	c-0.854-1.863-1.865-5.387-3.52-12.281c-2.07-8.641-2.301-9.973-2.166-12.543c0.156-3.031-0.375-8.551-0.871-9.066
	c-0.283-0.289-1.307-3.809-4.391-15.129c-0.797-2.918-1.67-6.742-1.943-8.504c-0.27-1.758-0.881-4.223-1.35-5.473
	c-0.473-1.25-0.91-3.016-0.975-3.926c-0.059-0.914-0.219-3.18-0.346-5.039c-0.127-1.863-0.162-3.934-0.074-4.605
	c0.158-1.242-0.602-3.324-1.162-3.184c-0.436,0.109-0.525,1.199-0.205,2.492c0.15,0.602,0.072,1.289-0.168,1.523
	c-0.789,0.781-0.912,2.277-0.369,4.469c0.295,1.18,0.414,2.574,0.271,3.094c-0.178,0.637,0.271,3.234,1.35,7.836
	c0.885,3.789,1.688,7.871,1.777,9.074c0.115,1.508,0.719,3.703,1.945,7.09c0.98,2.699,1.752,5.148,1.721,5.441
	c-0.033,0.297,0.457,2.035,1.088,3.863c1.146,3.32,1.301,4.711,1.285,11.656c0,1,0.873,5.594,1.941,10.207
	c1.066,4.609,1.881,8.484,1.809,8.605c-0.076,0.129-1.375,0.605-2.885,1.055c-3.137,0.949-8.238,3.309-12.635,5.844
	c-1.654,0.953-4.309,2.387-5.891,3.176c-2.73,1.363-6.518,3.926-7.369,4.98c-0.217,0.266-1.018,1.047-1.777,1.734
	c-0.762,0.688-1.797,1.828-2.301,2.531s-2.369,3.293-4.143,5.754c-4.072,5.645-5.15,7.797-5.203,10.383
	c-0.039,1.777,0.131,2.668,0.885,4.711C203.681,325.736,204.063,325.752,204.466,325.533z"/>
<path fill="#653B1E" d="M311.843,169.518c0.773-0.309,1.678-0.469,2.008-0.367c0.346,0.113,0.725-0.008,0.891-0.281
	c0.34-0.563-0.666-0.996-1.723-0.742c-1.209,0.285-2.357-0.227-2.59-1.16c-0.396-1.602-2.777-1.316-3.379,0.406
	c-0.357,1.023-0.32,1.168,0.471,1.902C308.528,170.205,309.901,170.283,311.843,169.518z"/>
<path fill="#653B1E" d="M233.952,204.271c0.568-0.23,0.875-0.84,1.008-2c0.102-0.914,0.654-2.496,1.225-3.508l1.031-1.844
	l1.391,0.633c1.85,0.844,1.797,1.719-0.379,6.59c-0.752,1.688,0.123,3.371,2.051,3.945c1.541,0.457,2.979,2.027,2.85,3.102
	c-0.049,0.359,0.297,1.004,0.76,1.434c0.941,0.875,2.264,0.758,2.383-0.215c0.148-1.188-1.721-4.012-3.727-5.641l-2.002-1.625
	l0.395-1.695c0.217-0.93,0.535-1.836,0.711-2.012c0.639-0.656,0.422-3.266-0.387-4.629c-0.762-1.289-0.75-1.359,0.705-4.129
	c0.814-1.551,1.73-2.879,2.025-2.965c0.299-0.074,2.525-1.754,4.947-3.723c4.92-4.004,5.527-4.383,10.195-6.324
	c1.814-0.758,4.391-2.137,5.715-3.066c1.771-1.242,3.473-2.035,6.4-2.988c3.43-1.113,4.434-1.629,7.186-3.68
	c1.756-1.313,4.342-2.891,5.748-3.516c1.406-0.617,3.199-1.461,3.986-1.867c0.789-0.41,3.641-1.449,6.336-2.309
	c4.605-1.469,6.459-2.422,6.264-3.215c-0.354-1.418-9.203,1.211-16.852,5.012c-0.83,0.41-1.916,0.848-2.41,0.973
	c-0.496,0.121-2.174,1.285-3.732,2.59c-2.557,2.133-3.18,2.469-6.41,3.449c-2.5,0.762-4.305,1.57-6.006,2.707
	c-1.338,0.891-4.094,2.266-6.123,3.055c-2.033,0.789-4.176,1.684-4.768,1.996c-1.857,0.973-7.467,5.379-9.484,7.449
	c-1.064,1.094-3.424,3.305-5.24,4.918c-4.33,3.84-5.984,6.172-6.779,9.559C232.274,203.674,232.595,204.822,233.952,204.271z"/>
<path fill="#653B1E" d="M343.159,144.479c0.371-0.184,2.094-0.688,3.832-1.113c2.682-0.664,3.377-0.699,4.543-0.215
	c1.268,0.523,1.6,0.488,4.41-0.496c1.67-0.582,5.512-1.648,8.529-2.363c4.693-1.109,5.697-1.234,6.871-0.859
	c0.758,0.242,2.693,0.598,4.299,0.789c2.385,0.277,3.293,0.207,4.959-0.406c1.123-0.418,3.426-1.195,5.111-1.73l3.074-0.977
	l0.838,0.953c1.404,1.598,2.645,1.602,9.375,0.031c5.832-1.363,10.793-2.047,12.289-1.695c0.602,0.145,3.16,0.137,4.293-0.008
	c6.809-0.887,13.945-0.805,17.047,0.195c1.992,0.645,3.617,0.414,4.094-0.578c0.398-0.82-0.129-1.398-1.055-1.172
	c-0.379,0.098-1.188-0.051-1.797-0.328c-1.582-0.711-9.305-1.359-12.336-1.035c-6.992,0.746-7.984,0.762-12.008,0.211
	c-2.656-0.367-5.418,0.246-7.805,1.742c-1.289,0.809-2.527,1.23-4.666,1.594c-3.037,0.516-4.713,0.234-5.412-0.914
	c-0.84-1.359-2.559-1.211-7.799,0.672c-4.412,1.586-5.02,1.719-7.162,1.594c-1.287-0.07-3.182-0.426-4.197-0.781
	c-1.598-0.559-2.381-0.551-5.652,0.059c-2.088,0.391-4.926,1.125-6.303,1.625c-2.459,0.898-4.211,1.188-9.82,1.613
	c-3.861,0.297-8.58,1.453-9.039,2.215C341.175,143.932,342.251,144.932,343.159,144.479z"/>
<path fill="#653B1E" d="M264.251,354.482c-1.367-0.313-2.59-0.922-3.303-1.648c-1.182-1.199-2.721-1.637-3.605-1.02
	c-1.754,1.227,2.621,4.109,6.596,4.352c2.393,0.145,2.793,0.051,2.623-0.617C266.487,355.236,265.444,354.76,264.251,354.482z"/>
<path fill="#653B1E" d="M454.255,203.307c-0.301-1.215-0.664-1.277-7.43-1.387c-6.762-0.102-10.742-0.293-11.773-0.563
	c-0.414-0.109-1.141-0.102-1.617,0.012c-1.078,0.258-6.324-0.055-9.148-0.551c-1.16-0.203-2.938-0.395-3.949-0.422
	c-5.488-0.164-8.184-0.191-10.348-0.09c-1.32,0.063-3.539-0.066-4.926-0.289c-2.588-0.406-4.326-0.512-9.662-0.598
	c-4.998-0.078-5.154-0.055-5.406,0.945c-0.189,0.754-0.055,0.949,0.84,1.262c0.986,0.348,4.727,0.223,6.477-0.219
	c3.014-0.754,5.023-0.656,6.646,0.316c1.156,0.699,2.242,0.98,3.523,0.914c2.547-0.129,7.965-0.445,9.531-0.563
	c0.715-0.051,1.43,0.035,1.59,0.191s0.57,0.219,0.91,0.137c0.336-0.082,0.977,0.039,1.422,0.281
	c1.078,0.574,6.086,0.996,10.305,0.863c1.875-0.063,5.453,0.035,7.953,0.215c2.488,0.176,5.156,0.277,5.914,0.219
	c2.172-0.16,7.063,0.066,7.559,0.348C453.591,204.861,454.493,204.275,454.255,203.307z"/>
<path fill="#653B1E" d="M421.825,147.885c-1.707-1.133-1.977-1.176-5.91-0.914c-2.262,0.152-5.395,0.414-6.957,0.586
	c-4.926,0.535-7.123,0.434-8.311-0.391c-1.012-0.695-5.119-0.938-11.299-0.664c-2.863,0.125-5.703,0.066-6.311-0.133
	c-2.457-0.82-3.195-0.891-3.602-0.34c-1.553,2.109,2.283,3.125,8.535,2.266c3.895-0.535,7.639-0.867,9.213-0.813
	c0.389,0.016,0.789,0.34,0.887,0.727c0.154,0.629,2.615,2.168,3.271,2.047c0.145-0.023,1.072-0.078,2.064-0.117
	c0.988-0.043,3.836-0.391,6.32-0.785c6.324-1,8.582-1.027,9.23-0.109c0.281,0.41,1.016,1.02,1.625,1.352
	c1.465,0.809,6.625,0.914,9.516,0.195c1.273-0.316,2.527-0.445,2.789-0.289c0.258,0.16,1.516,0.121,2.789-0.086
	c3.023-0.488,6.453-0.184,7.422,0.648c1.148,1.004,3.551,1.172,8.078,0.566c2.242-0.301,4.648-0.52,5.336-0.48
	c0.695,0.039,2.828-0.148,4.758-0.414c4.172-0.574,7.688-0.727,8.508-0.355c0.328,0.145,0.984,0.785,1.453,1.418
	c1.063,1.43,3.953,2.055,9.063,1.965c12.867-0.23,14.055-0.16,15.195,0.895c0.891,0.828,2.73,0.629,3.18-0.344
	c0.348-0.742-0.539-2.02-1.57-2.281c-1.477-0.375-5.789-0.609-10.199-0.555c-2.418,0.031-5.242,0.004-6.262-0.063
	c-1.016-0.066-2.668-0.121-3.672-0.121c-1.289,0-2.387-0.371-3.758-1.258c-1.438-0.934-2.512-1.277-4.176-1.328
	c-2.488-0.082-5.918,0.059-8.008,0.332c-1.629,0.211-4.535,0.297-7.637,0.23c-1.227-0.023-3.27,0.012-4.531,0.082
	c-1.258,0.07-2.609-0.063-2.996-0.293c-1.027-0.621-2.184-0.645-11.004-0.246C424.138,149.295,423.927,149.283,421.825,147.885z"/>
<path fill="#653B1E" d="M409.81,327.416c0.523,0.406,1.012,0.98,1.086,1.273c0.07,0.297,0.359,0.703,0.633,0.902
	s0.98,0.758,1.57,1.234c0.68,0.559,1.336,0.758,1.82,0.559c1.117-0.457,0.98-1.051-0.57-2.438c-4.16-3.73-4.734-4.594-5.703-8.574
	c-0.5-2.047-1.031-3.695-1.18-3.652c-0.602,0.145-1.641,2.973-1.445,3.93C406.677,323.783,407.86,325.9,409.81,327.416z"/>
<path fill="#653B1E" d="M406.251,331.494c-0.02-0.43-0.27-0.645-0.637-0.551c-0.332,0.078-1.414-0.289-2.408-0.82
	c-1.512-0.813-1.861-0.863-2.123-0.32c-0.496,1.023,0.486,2.367,1.984,2.707C404.786,332.904,406.306,332.416,406.251,331.494z"/>
<path fill="#653B1E" d="M400.903,317.791c0.191,0.781,1.412,2.383,2.236,2.938c1.311,0.879,1.967,0.418,1.318-0.934
	c-0.309-0.648-0.828-1.84-1.152-2.652c-0.32-0.809-0.752-1.582-0.959-1.715C401.909,315.146,400.728,317.084,400.903,317.791z"/>
<path fill="#653B1E" d="M416.442,337.986c2.813,0.172,3.313-0.805,0.832-1.625c-0.973-0.324-1.902-0.555-2.066-0.516
	c-0.16,0.035-1.734-0.664-3.5-1.563c-1.766-0.895-3.504-1.555-3.859-1.469c-0.871,0.219-1.348,1.297-0.871,1.98
	C407.669,335.787,413.716,337.826,416.442,337.986z"/>
<path fill="#653B1E" d="M460.243,216.275c-1.586,2.102-1.992,9.051-0.535,9.082c1.203,0.023,1.633-0.145,1.641-0.648
	c0.008-0.281-0.004-1.512-0.027-2.73s0.285-3.016,0.684-3.988c0.391-0.98,0.66-2.004,0.594-2.277
	C462.442,215.08,460.86,215.459,460.243,216.275z"/>
<path fill="#653B1E" d="M513.532,220.908c1.543,0.398,1.324,0.449,4.035-0.941c8.469-4.355,16.984-10.934,15.539-11.996
	c-0.859-0.633-1.855-0.242-4.164,1.621c-4.438,3.602-6.078,4.801-6.754,4.969c-0.387,0.098-1.445,0.699-2.348,1.34
	c-0.906,0.637-2.801,1.684-4.195,2.32C512.403,219.697,511.802,220.459,513.532,220.908z"/>
<path fill="#653B1E" d="M453.177,138.158c4.148,0.031,8.332,0.871,9.523,1.914c0.531,0.465,1.344,1.098,1.809,1.406
	c0.953,0.629,3.371,0.227,3.641-0.609c0.098-0.301-0.25-0.68-0.832-0.906c-0.543-0.215-2.066-0.91-3.383-1.547
	c-1.32-0.637-3.211-1.406-4.211-1.707c-1.633-0.488-8.797-1.211-9.727-0.977c-0.484,0.121-0.711,1.906-0.281,2.188
	C449.899,138.037,451.454,138.146,453.177,138.158z"/>
<path fill="#653B1E" d="M505.755,189.803c-1.469,1.766-2.242,9.484-1.023,10.219c0.848,0.508,1.391-0.523,1.695-3.223
	c0.188-1.613,0.609-3.848,0.945-4.961c0.336-1.117,0.566-2.211,0.508-2.438C507.767,188.939,506.231,189.229,505.755,189.803z"/>
<path fill="#653B1E" d="M523.521,256.662c-0.477-0.461-2.047,0.156-2.133,0.84c-0.039,0.363,0.039,1.148,0.188,1.746
	c0.152,0.602,0.211,1.574,0.148,2.16c-0.074,0.586,0.094,1.559,0.379,2.156c0.285,0.602,0.629,1.059,0.77,1.023
	c0.574-0.141,0.93-1.266,0.703-2.195c-0.133-0.547-0.141-1.191-0.008-1.434C523.888,260.354,523.853,256.986,523.521,256.662z"/>
</svg>
